<svg width="347" height="60" viewBox="0 -2 347 60" fill="none" xmlns="http://www.w3.org/2000/svg">
<svg x="0" y="5" width="50" height="46" viewBox="0 0 371 346" preserveAspectRatio="xMidYMid meet" overflow="visible">
<path d="M268.41 16.9105C286.08 23.9905 303.48 33.9905 316.45 47.5405C326.263 57.7871 335.316 68.6505 343.61 80.1305C351.79 91.4705 356.93 104.77 360.96 118.06C365.59 133.34 363.53 148.16 359.64 163.48C355.58 179.49 360.01 193.19 364.09 208.48C369.22 227.73 366.45 246.6 359.62 265.23C357.38 271.34 354.93 275.76 350.57 280.98C337.82 296.26 323.33 309.9 306.19 319.44C280.75 333.59 251.64 342.44 221.96 342.47C203.706 342.49 187.136 341.914 172.25 340.74C167.53 340.367 161.686 339.42 154.72 337.9C140.38 334.76 123.18 331.05 107.82 325.93C103.9 324.617 100.026 322.804 96.1997 320.49C77.4497 309.17 57.5697 294.97 44.0797 277.49C24.5497 252.19 8.48974 221.26 4.56974 189C3.44307 179.734 3.63308 168.98 5.13975 156.74C6.96641 141.94 10.1431 127.437 14.6697 113.23C16.3431 107.984 18.5397 102.96 21.2597 98.1605C28.1264 86.0338 35.9264 74.5405 44.6597 63.6805C52.3097 54.1505 61.1097 44.5005 71.1297 37.9105C77.5564 33.6771 84.2564 29.9338 91.2297 26.6804C111.27 17.3204 133.87 9.96045 156.01 8.18045C166.336 7.35378 176.663 6.50378 186.99 5.63045C214.37 3.31045 242.82 6.64045 268.41 16.9105ZM261.67 206.62C267.2 214.39 274.79 221.25 284.33 223.27C294.976 225.517 305.116 223.694 314.75 217.8C325.08 211.47 328.63 200.35 329.27 188.7C329.31 187.987 329.583 187.52 330.09 187.3C330.503 187.12 331.076 186.91 331.81 186.67C332.195 186.548 332.518 186.28 332.709 185.923C332.899 185.566 332.943 185.149 332.83 184.76L332.71 184.37C332.363 183.157 331.583 182.717 330.37 183.05L258.57 202.76C257.643 203.02 257.253 203.624 257.4 204.57L257.5 205.24C257.531 205.438 257.602 205.626 257.707 205.796C257.812 205.966 257.949 206.112 258.111 206.228C258.274 206.343 258.457 206.425 258.651 206.469C258.844 206.512 259.045 206.516 259.24 206.48L260.72 206.23C260.899 206.198 261.084 206.217 261.252 206.286C261.42 206.355 261.565 206.471 261.67 206.62ZM130.41 209.75C134.05 220.07 141.91 226.51 151.37 231.69C160.88 236.9 172.48 237.18 183.39 235.47C190.35 234.37 196.21 228.75 200.16 223.3C204.97 216.67 206.47 207.96 206.63 199.81C206.636 199.464 206.756 199.164 206.99 198.91L212.11 193.47C212.364 193.2 212.503 192.841 212.498 192.469C212.492 192.098 212.342 191.743 212.08 191.48L211.66 191.05C210.713 190.097 209.796 190.12 208.91 191.12C205.583 194.894 201.543 197.73 196.79 199.63C194.496 200.55 191.563 201.087 187.99 201.24C164.616 202.26 149.62 202.867 143 203.06C135.98 203.26 129.696 204.717 124.15 207.43C123.802 207.601 123.532 207.899 123.397 208.263C123.261 208.627 123.269 209.031 123.42 209.39L123.59 209.8C123.78 210.256 124.141 210.62 124.596 210.816C125.05 211.012 125.565 211.024 126.03 210.85L129.74 209.44C130.073 209.314 130.296 209.417 130.41 209.75ZM171.44 263.64C158.79 258.47 145.99 253.83 133.54 248.18C130.36 246.73 125.26 245.24 127.42 251.46C130.466 260.234 134.076 268.764 138.25 277.05C148.15 296.71 168.53 308.83 187.98 317.51C200.12 322.93 209.96 324.76 222.85 324.85C238.88 324.96 248.97 323.45 262.24 318.44C274.97 313.62 285.18 309.4 295.36 300.36C309.02 288.24 319.49 276.82 323.28 258.52C323.46 257.634 323.366 256.7 323 255.72C322.943 255.575 322.858 255.443 322.75 255.331C322.642 255.22 322.512 255.131 322.37 255.07C321.056 254.524 319.84 254.404 318.72 254.71C305.57 258.26 288.26 265.06 272.25 266.68C250.61 268.88 228.48 268.83 206.75 268.38C198.876 268.214 191.05 267.544 183.27 266.37C177.85 265.557 173.906 264.647 171.44 263.64Z" fill="white"/>
<path d="M137.64 254.23C148.84 258.93 160.107 263.476 171.44 267.87C175.247 269.343 181.1 270.476 189 271.27C197.393 272.116 205.81 272.55 214.25 272.57C234.33 272.63 255.01 272.62 274.5 270.45C288.86 268.86 303.9 263.25 317.9 259.03C318.973 258.71 319.35 259.086 319.03 260.16C316.077 270.026 311.5 278.326 305.3 285.06C297.1 293.96 288.08 302.77 276.98 307.97C266.37 312.93 253.68 318.47 241.99 319.82C229.74 321.24 216.25 321.72 204.16 319C200.027 318.066 195.353 316.42 190.14 314.06C179.04 309.03 167.09 302.97 158.02 294.93C151.99 289.6 145.64 283.42 142.05 276.11C138.223 268.33 134.82 260.423 131.84 252.39C131.707 252.043 131.817 251.933 132.17 252.06C133.95 252.72 135.773 253.443 137.64 254.23ZM151.3 275.29L149.14 274.19C148 273.61 147.153 273.893 146.6 275.04L146.4 275.46C146.221 275.827 146.191 276.25 146.316 276.637C146.441 277.025 146.711 277.349 147.07 277.54L151.48 279.92C151.74 280.06 151.873 280.28 151.88 280.58V286.26C151.883 286.623 152.009 286.974 152.238 287.255C152.467 287.537 152.785 287.733 153.14 287.81L153.53 287.89C155.11 288.223 155.893 287.583 155.88 285.97L155.87 282.96C155.87 282.493 156.073 282.37 156.48 282.59L160.41 284.68C160.856 284.917 161.377 284.972 161.865 284.832C162.353 284.693 162.771 284.369 163.03 283.93L163.29 283.48C163.39 283.308 163.456 283.119 163.481 282.922C163.507 282.725 163.493 282.525 163.44 282.334C163.386 282.143 163.295 281.964 163.172 281.809C163.048 281.653 162.894 281.524 162.72 281.43L156.28 277.94C156.154 277.874 156.048 277.775 155.974 277.653C155.9 277.532 155.86 277.392 155.86 277.25L155.87 270.74C155.87 270.301 155.701 269.879 155.397 269.562C155.093 269.245 154.679 269.058 154.24 269.04L153.73 269.01C153.492 268.999 153.254 269.036 153.03 269.12C152.807 269.203 152.603 269.331 152.43 269.495C152.257 269.66 152.119 269.857 152.025 270.076C151.93 270.295 151.881 270.531 151.88 270.77L151.86 274.95C151.86 275.37 151.673 275.483 151.3 275.29ZM289.43 290.05C289.35 291.056 289.347 292.05 289.42 293.03C289.53 294.53 290.74 295.29 292.19 294.83C292.524 294.726 292.816 294.518 293.025 294.235C293.233 293.953 293.347 293.612 293.35 293.26L293.38 288.53C293.38 288.263 293.503 288.086 293.75 288L297.46 286.62C297.656 286.547 297.835 286.434 297.985 286.289C298.135 286.143 298.253 285.967 298.331 285.773C298.409 285.579 298.446 285.371 298.439 285.162C298.432 284.953 298.381 284.748 298.29 284.56L298 283.96C297.8 283.548 297.453 283.226 297.027 283.057C296.601 282.889 296.128 282.886 295.7 283.05L294.01 283.7C293.94 283.727 293.865 283.737 293.79 283.728C293.716 283.719 293.644 283.692 293.582 283.649C293.52 283.605 293.469 283.547 293.434 283.479C293.399 283.412 293.38 283.336 293.38 283.26L293.37 279.03C293.369 278.757 293.313 278.488 293.207 278.238C293.101 277.988 292.945 277.761 292.751 277.572C292.556 277.383 292.325 277.235 292.073 277.136C291.82 277.038 291.551 276.992 291.28 277L290.8 277.02C290.427 277.03 290.072 277.184 289.811 277.449C289.55 277.714 289.402 278.069 289.4 278.44L289.36 284.7C289.353 285.013 289.203 285.22 288.91 285.32L285.18 286.58C284.027 286.966 283.613 287.75 283.94 288.93L284.05 289.34C284.107 289.549 284.206 289.746 284.341 289.917C284.475 290.088 284.643 290.23 284.834 290.335C285.025 290.441 285.236 290.507 285.453 290.53C285.67 290.553 285.89 290.532 286.1 290.47L288.89 289.62C289.277 289.5 289.457 289.643 289.43 290.05ZM186.55 297.27L191.19 298.83C192.497 299.276 193.347 298.836 193.74 297.51L193.84 297.17C193.955 296.784 193.918 296.368 193.736 296.009C193.553 295.65 193.24 295.374 192.86 295.24L186.97 293.17C186.63 293.05 186.48 292.81 186.52 292.45L187.35 284.59C187.483 283.29 186.897 282.6 185.59 282.52L185.09 282.49C184.68 282.464 184.275 282.596 183.961 282.858C183.646 283.121 183.445 283.494 183.4 283.9L182.61 291.06C182.603 291.123 182.582 291.184 182.548 291.238C182.514 291.293 182.468 291.339 182.414 291.373C182.359 291.407 182.297 291.43 182.233 291.438C182.168 291.446 182.102 291.44 182.04 291.42L176.46 289.57C175.107 289.116 174.273 289.586 173.96 290.98L173.86 291.42C173.782 291.777 173.837 292.15 174.014 292.468C174.191 292.787 174.477 293.029 174.82 293.15L181.55 295.54C181.917 295.666 182.08 295.92 182.04 296.3L181.34 303.23C181.321 303.431 181.343 303.635 181.405 303.828C181.467 304.02 181.568 304.198 181.701 304.35C181.834 304.502 181.996 304.625 182.179 304.711C182.361 304.797 182.559 304.844 182.76 304.85L183.27 304.87C184.55 304.916 185.253 304.3 185.38 303.02L185.89 297.7C185.897 297.624 185.92 297.551 185.959 297.486C185.998 297.421 186.052 297.365 186.115 297.324C186.179 297.282 186.251 297.256 186.326 297.247C186.402 297.237 186.478 297.245 186.55 297.27ZM269.56 295.74L269.38 300.3C269.366 300.665 269.484 301.023 269.711 301.309C269.939 301.595 270.261 301.791 270.62 301.86L271.05 301.94C272.463 302.22 273.223 301.64 273.33 300.2L273.78 294.28C273.807 293.96 273.97 293.75 274.27 293.65L278.28 292.23C278.673 292.091 278.999 291.807 279.192 291.436C279.385 291.065 279.431 290.634 279.32 290.23C278.57 287.54 276.55 288.73 274.79 289.22C274.363 289.333 274.16 289.17 274.18 288.73L274.32 285.56C274.331 285.29 274.287 285.02 274.19 284.768C274.094 284.515 273.947 284.286 273.758 284.093C273.57 283.9 273.344 283.748 273.095 283.646C272.846 283.544 272.579 283.494 272.31 283.5L271.96 283.51C271.553 283.519 271.164 283.68 270.87 283.961C270.576 284.242 270.397 284.623 270.37 285.03L270.01 290.26C269.99 290.62 269.81 290.856 269.47 290.97L264.5 292.63C264.127 292.755 263.811 293.008 263.608 293.343C263.405 293.678 263.328 294.074 263.39 294.46L263.48 295.05C263.707 296.51 264.513 296.983 265.9 296.47L268.99 295.32C269.39 295.18 269.58 295.32 269.56 295.74ZM247.54 294.79L248.33 286.27C248.45 284.963 247.86 284.236 246.56 284.09L246.17 284.05C245.959 284.026 245.745 284.045 245.541 284.105C245.338 284.165 245.148 284.265 244.983 284.399C244.818 284.533 244.682 284.698 244.582 284.885C244.482 285.073 244.42 285.278 244.4 285.49L243.48 295.2C243.44 295.613 243.213 295.843 242.8 295.89L233.53 296.99C232.35 297.123 231.807 297.783 231.9 298.97L231.94 299.58C231.955 299.784 232.011 299.983 232.105 300.166C232.199 300.348 232.328 300.509 232.486 300.64C232.644 300.771 232.827 300.868 233.023 300.927C233.22 300.985 233.426 301.003 233.63 300.98L242.46 299.96C242.827 299.92 242.997 300.083 242.97 300.45L242.36 307.48C242.24 308.846 242.867 309.506 244.24 309.46L244.87 309.44C245.218 309.429 245.549 309.291 245.803 309.052C246.057 308.812 246.216 308.488 246.25 308.14L247.08 299.92C247.113 299.613 247.28 299.443 247.58 299.41L255.96 298.37C256.34 298.32 256.688 298.131 256.935 297.839C257.183 297.547 257.313 297.172 257.3 296.79L257.28 296.34C257.22 294.94 256.49 294.316 255.09 294.47L248.04 295.27C247.673 295.316 247.507 295.156 247.54 294.79ZM209.9 296.54L203.25 295.97C201.903 295.85 201.127 296.456 200.92 297.79L200.87 298.1C200.838 298.311 200.849 298.527 200.903 298.735C200.958 298.942 201.054 299.136 201.186 299.304C201.318 299.473 201.483 299.613 201.671 299.715C201.86 299.817 202.067 299.88 202.28 299.9L209.79 300.56C210.177 300.593 210.37 300.803 210.37 301.19L210.38 308.42C210.383 308.793 210.523 309.152 210.774 309.429C211.025 309.706 211.369 309.88 211.74 309.92L212.34 309.98C213.68 310.106 214.353 309.5 214.36 308.16L214.38 301.41C214.38 301.35 214.392 301.29 214.416 301.235C214.44 301.18 214.475 301.131 214.52 301.091C214.564 301.05 214.616 301.019 214.673 301C214.73 300.981 214.79 300.974 214.85 300.98L220.55 301.47C220.763 301.486 220.978 301.459 221.181 301.391C221.384 301.323 221.571 301.215 221.731 301.073C221.892 300.931 222.022 300.759 222.114 300.566C222.207 300.373 222.26 300.163 222.27 299.95L222.3 299.51C222.36 298.263 221.767 297.583 220.52 297.47L215.02 296.98C214.58 296.946 214.363 296.71 214.37 296.27L214.38 288.46C214.38 288.198 214.328 287.939 214.226 287.698C214.125 287.457 213.976 287.238 213.788 287.056C213.601 286.873 213.379 286.73 213.135 286.634C212.892 286.539 212.632 286.493 212.37 286.5L211.91 286.52C211.501 286.527 211.112 286.696 210.826 286.99C210.54 287.284 210.38 287.678 210.38 288.09V296.1C210.38 296.42 210.22 296.566 209.9 296.54Z" fill="white"/>
<path d="M260.72 206.23L259.24 206.48C259.045 206.516 258.845 206.512 258.651 206.468C258.457 206.425 258.274 206.343 258.112 206.228C257.95 206.112 257.812 205.965 257.707 205.796C257.602 205.626 257.532 205.437 257.5 205.24L257.4 204.57C257.254 203.623 257.643 203.02 258.57 202.76L330.37 183.05C331.583 182.717 332.364 183.157 332.71 184.37L332.83 184.76C332.943 185.149 332.9 185.566 332.709 185.923C332.518 186.28 332.196 186.548 331.81 186.67C331.077 186.91 330.504 187.12 330.09 187.3C329.584 187.52 329.31 187.987 329.27 188.7C328.63 200.35 325.08 211.47 314.75 217.8C305.117 223.693 294.977 225.517 284.33 223.27C274.79 221.25 267.2 214.39 261.67 206.62C261.566 206.471 261.421 206.355 261.252 206.286C261.084 206.217 260.899 206.197 260.72 206.23Z" fill="black" stroke="black" stroke-width="4" stroke-linejoin="round" stroke-linecap="round"/>
<path d="M129.74 209.44L126.03 210.85C125.565 211.024 125.051 211.012 124.596 210.816C124.141 210.62 123.78 210.256 123.59 209.8L123.42 209.39C123.269 209.031 123.261 208.627 123.397 208.263C123.533 207.899 123.802 207.601 124.15 207.43C129.697 204.717 135.98 203.26 143 203.06C149.62 202.867 164.617 202.26 187.99 201.24C191.563 201.087 194.497 200.55 196.79 199.63C201.543 197.73 205.583 194.894 208.91 191.12C209.797 190.12 210.713 190.097 211.66 191.05L212.08 191.48C212.342 191.743 212.492 192.098 212.498 192.469C212.503 192.841 212.364 193.2 212.11 193.47L206.99 198.91C206.757 199.164 206.637 199.464 206.63 199.81C206.47 207.96 204.97 216.67 200.16 223.3C196.21 228.75 190.35 234.37 183.39 235.47C172.48 237.18 160.88 236.9 151.37 231.69C141.91 226.51 134.05 220.07 130.41 209.75C130.297 209.417 130.073 209.314 129.74 209.44Z" fill="black" stroke="black" stroke-width="4" stroke-linejoin="round" stroke-linecap="round"/>
<path d="M133.54 248.18C145.99 253.83 158.79 258.47 171.44 263.64C173.907 264.647 177.85 265.557 183.27 266.37C191.05 267.544 198.876 268.214 206.75 268.38C228.48 268.83 250.61 268.88 272.25 266.68C288.26 265.06 305.57 258.26 318.72 254.71C319.84 254.404 321.056 254.524 322.37 255.07C322.513 255.131 322.642 255.22 322.75 255.331C322.858 255.443 322.943 255.575 323 255.72C323.366 256.7 323.46 257.634 323.28 258.52C319.49 276.82 309.02 288.24 295.36 300.36C285.18 309.4 274.97 313.62 262.24 318.44C248.97 323.45 238.88 324.96 222.85 324.85C209.96 324.76 200.12 322.93 187.98 317.51C168.53 308.83 148.15 296.71 138.25 277.05C134.077 268.764 130.467 260.234 127.42 251.46C125.26 245.24 130.36 246.73 133.54 248.18ZM137.64 254.23C135.773 253.444 133.95 252.72 132.17 252.06C131.817 251.934 131.706 252.044 131.84 252.39C134.82 260.424 138.223 268.33 142.05 276.11C145.64 283.42 151.99 289.6 158.02 294.93C167.09 302.97 179.04 309.03 190.14 314.06C195.353 316.42 200.026 318.067 204.16 319C216.25 321.72 229.74 321.24 241.99 319.82C253.68 318.47 266.37 312.93 276.98 307.97C288.08 302.77 297.1 293.96 305.3 285.06C311.5 278.327 316.077 270.027 319.03 260.16C319.35 259.087 318.973 258.71 317.9 259.03C303.9 263.25 288.86 268.86 274.5 270.45C255.01 272.62 234.33 272.63 214.25 272.57C205.81 272.55 197.393 272.117 189 271.27C181.1 270.477 175.247 269.344 171.44 267.87C160.107 263.477 148.84 258.93 137.64 254.23Z" fill="black" stroke="black" stroke-width="4" stroke-linejoin="round" stroke-linecap="round"/>
<path d="M151.86 274.95L151.88 270.77C151.881 270.531 151.93 270.295 152.025 270.076C152.119 269.857 152.257 269.66 152.43 269.495C152.603 269.331 152.807 269.203 153.03 269.12C153.254 269.036 153.492 268.999 153.73 269.01L154.24 269.04C154.678 269.058 155.093 269.245 155.397 269.562C155.701 269.878 155.87 270.301 155.87 270.74L155.86 277.25C155.86 277.392 155.899 277.532 155.974 277.653C156.048 277.775 156.153 277.874 156.28 277.94L162.72 281.43C162.894 281.524 163.048 281.653 163.172 281.809C163.295 281.964 163.386 282.142 163.439 282.334C163.493 282.525 163.507 282.725 163.481 282.922C163.455 283.119 163.39 283.308 163.29 283.48L163.03 283.93C162.77 284.369 162.353 284.693 161.865 284.832C161.377 284.972 160.856 284.917 160.41 284.68L156.48 282.59C156.073 282.37 155.87 282.493 155.87 282.96L155.88 285.97C155.893 287.583 155.11 288.223 153.53 287.89L153.14 287.81C152.785 287.732 152.467 287.537 152.238 287.255C152.009 286.974 151.883 286.623 151.88 286.26V280.58C151.873 280.28 151.74 280.06 151.48 279.92L147.07 277.54C146.711 277.349 146.441 277.025 146.316 276.637C146.191 276.249 146.221 275.827 146.4 275.46L146.6 275.04C147.153 273.893 148 273.61 149.14 274.19L151.3 275.29C151.673 275.483 151.86 275.37 151.86 274.95Z" fill="black" stroke="black" stroke-width="4" stroke-linejoin="round" stroke-linecap="round"/>
<path d="M288.89 289.62L286.1 290.47C285.89 290.533 285.67 290.553 285.453 290.53C285.235 290.507 285.025 290.441 284.834 290.335C284.643 290.23 284.475 290.088 284.34 289.917C284.206 289.746 284.107 289.55 284.05 289.34L283.94 288.93C283.613 287.75 284.026 286.967 285.18 286.58L288.91 285.32C289.203 285.22 289.353 285.013 289.36 284.7L289.4 278.44C289.402 278.069 289.55 277.714 289.811 277.449C290.072 277.184 290.427 277.03 290.8 277.02L291.28 277C291.55 276.992 291.82 277.038 292.073 277.137C292.325 277.235 292.556 277.383 292.75 277.572C292.945 277.761 293.1 277.988 293.207 278.238C293.313 278.489 293.368 278.758 293.37 279.03L293.38 283.26C293.38 283.336 293.398 283.412 293.434 283.48C293.469 283.547 293.52 283.606 293.582 283.649C293.644 283.692 293.715 283.72 293.79 283.729C293.865 283.737 293.94 283.728 294.01 283.7L295.7 283.05C296.127 282.886 296.601 282.889 297.027 283.057C297.453 283.226 297.8 283.548 298 283.96L298.29 284.56C298.381 284.748 298.431 284.953 298.438 285.162C298.446 285.371 298.409 285.58 298.331 285.774C298.253 285.968 298.135 286.143 297.985 286.289C297.835 286.435 297.656 286.547 297.46 286.62L293.75 288C293.503 288.087 293.38 288.263 293.38 288.53L293.35 293.26C293.347 293.612 293.233 293.953 293.025 294.236C292.816 294.518 292.524 294.726 292.19 294.83C290.74 295.29 289.53 294.53 289.42 293.03C289.346 292.05 289.35 291.057 289.43 290.05C289.456 289.643 289.276 289.5 288.89 289.62Z" fill="black" stroke="black" stroke-width="4" stroke-linejoin="round" stroke-linecap="round"/>
<path d="M185.89 297.7L185.38 303.02C185.253 304.3 184.549 304.916 183.269 304.87L182.76 304.85C182.558 304.844 182.36 304.796 182.178 304.71C181.996 304.625 181.833 304.502 181.7 304.35C181.567 304.198 181.466 304.02 181.404 303.828C181.342 303.635 181.32 303.431 181.34 303.23L182.04 296.3C182.08 295.92 181.916 295.666 181.549 295.54L174.82 293.15C174.477 293.029 174.19 292.787 174.014 292.468C173.837 292.15 173.782 291.777 173.859 291.42L173.959 290.98C174.273 289.586 175.106 289.116 176.459 289.57L182.04 291.42C182.102 291.439 182.167 291.446 182.232 291.438C182.297 291.429 182.359 291.407 182.413 291.373C182.468 291.338 182.514 291.292 182.548 291.238C182.582 291.184 182.603 291.123 182.609 291.06L183.399 283.9C183.445 283.494 183.646 283.121 183.96 282.858C184.275 282.596 184.679 282.464 185.09 282.49L185.59 282.52C186.896 282.6 187.483 283.29 187.35 284.59L186.519 292.45C186.479 292.81 186.63 293.05 186.97 293.17L192.859 295.24C193.239 295.374 193.553 295.649 193.735 296.009C193.918 296.368 193.955 296.784 193.84 297.17L193.739 297.51C193.346 298.836 192.496 299.276 191.19 298.83L186.549 297.27C186.478 297.245 186.401 297.237 186.326 297.246C186.251 297.256 186.178 297.282 186.115 297.324C186.051 297.365 185.998 297.421 185.959 297.486C185.92 297.551 185.896 297.624 185.89 297.7Z" fill="black" stroke="black" stroke-width="4" stroke-linejoin="round" stroke-linecap="round"/>
<path d="M268.99 295.32L265.9 296.47C264.513 296.984 263.706 296.51 263.48 295.05L263.39 294.46C263.327 294.075 263.405 293.679 263.608 293.344C263.811 293.009 264.127 292.756 264.5 292.63L269.47 290.97C269.81 290.857 269.99 290.62 270.01 290.26L270.37 285.03C270.397 284.624 270.575 284.243 270.87 283.962C271.164 283.681 271.553 283.52 271.96 283.51L272.31 283.5C272.579 283.495 272.846 283.544 273.095 283.646C273.344 283.748 273.57 283.901 273.758 284.094C273.946 284.287 274.093 284.516 274.19 284.769C274.287 285.021 274.331 285.29 274.32 285.56L274.18 288.73C274.16 289.17 274.363 289.334 274.79 289.22C276.55 288.73 278.57 287.54 279.32 290.23C279.43 290.635 279.385 291.066 279.192 291.437C278.999 291.808 278.673 292.092 278.28 292.23L274.27 293.65C273.97 293.75 273.806 293.96 273.78 294.28L273.33 300.2C273.223 301.64 272.463 302.22 271.05 301.94L270.62 301.86C270.261 301.791 269.938 301.596 269.711 301.31C269.483 301.024 269.366 300.666 269.38 300.3L269.56 295.74C269.58 295.32 269.39 295.18 268.99 295.32Z" fill="black" stroke="black" stroke-width="4" stroke-linejoin="round" stroke-linecap="round"/>
<path d="M248.04 295.27L255.09 294.47C256.49 294.317 257.22 294.94 257.28 296.34L257.3 296.79C257.313 297.173 257.183 297.547 256.935 297.839C256.688 298.131 256.34 298.32 255.96 298.37L247.58 299.41C247.28 299.443 247.113 299.613 247.08 299.92L246.25 308.14C246.216 308.488 246.057 308.813 245.803 309.052C245.549 309.291 245.217 309.429 244.87 309.44L244.24 309.46C242.867 309.507 242.24 308.847 242.36 307.48L242.97 300.45C242.997 300.083 242.827 299.92 242.46 299.96L233.63 300.98C233.426 301.003 233.22 300.985 233.023 300.927C232.827 300.869 232.644 300.771 232.486 300.64C232.328 300.51 232.199 300.348 232.105 300.166C232.011 299.984 231.955 299.784 231.94 299.58L231.9 298.97C231.807 297.783 232.35 297.123 233.53 296.99L242.8 295.89C243.213 295.843 243.44 295.613 243.48 295.2L244.4 285.49C244.42 285.278 244.482 285.073 244.582 284.886C244.682 284.698 244.818 284.533 244.983 284.399C245.148 284.265 245.338 284.165 245.541 284.105C245.745 284.045 245.959 284.026 246.17 284.05L246.56 284.09C247.86 284.237 248.45 284.963 248.33 286.27L247.54 294.79C247.507 295.157 247.673 295.317 248.04 295.27Z" fill="black" stroke="black" stroke-width="4" stroke-linejoin="round" stroke-linecap="round"/>
<path d="M210.379 296.1V288.09C210.379 287.678 210.54 287.284 210.826 286.99C211.112 286.696 211.501 286.528 211.909 286.52L212.369 286.5C212.631 286.493 212.891 286.539 213.135 286.634C213.379 286.73 213.601 286.873 213.788 287.056C213.975 287.238 214.124 287.457 214.226 287.698C214.327 287.939 214.38 288.198 214.379 288.46L214.369 296.27C214.363 296.71 214.579 296.946 215.019 296.98L220.519 297.47C221.766 297.583 222.359 298.263 222.299 299.51L222.269 299.95C222.259 300.163 222.207 300.373 222.114 300.566C222.021 300.759 221.891 300.932 221.731 301.073C221.57 301.215 221.383 301.323 221.18 301.391C220.977 301.459 220.763 301.486 220.549 301.47L214.849 300.98C214.79 300.974 214.73 300.981 214.673 301C214.616 301.019 214.563 301.05 214.519 301.091C214.475 301.131 214.44 301.18 214.416 301.235C214.391 301.29 214.379 301.35 214.379 301.41L214.359 308.16C214.353 309.5 213.68 310.106 212.34 309.98L211.739 309.92C211.368 309.88 211.024 309.706 210.773 309.429C210.523 309.152 210.382 308.793 210.379 308.42L210.369 301.19C210.369 300.803 210.176 300.593 209.789 300.56L202.28 299.9C202.066 299.88 201.859 299.817 201.671 299.715C201.483 299.613 201.318 299.473 201.186 299.304C201.054 299.136 200.957 298.942 200.903 298.735C200.849 298.527 200.837 298.311 200.869 298.1L200.919 297.79C201.126 296.456 201.903 295.85 203.249 295.97L209.9 296.54C210.22 296.566 210.379 296.42 210.379 296.1Z" fill="black" stroke="black" stroke-width="4" stroke-linejoin="round" stroke-linecap="round"/>
<path fill-rule="evenodd" clip-rule="evenodd" d="M94.135 323.044C74.325 311.104 54.025 296.214 40.315 278.324C17.555 248.644 -1.51497 209.694 0.0950345 171.394C1.00837 149.734 4.94838 128.647 11.915 108.134C13.4417 103.627 15.3884 99.3035 17.755 95.1635C28.615 76.1635 41.1951 59.3302 55.4951 44.6635C60.9951 39.0335 67.835 33.9635 75.095 29.8035C102.195 14.2835 131.565 5.10352 162.725 2.65352C181.538 1.17352 194.042 0.320184 200.235 0.0935174C214.068 -0.419816 229.135 1.18018 245.435 4.89352C271.475 10.8235 298.495 23.1035 317.315 42.0635C328.355 53.1835 338.415 65.1269 347.495 77.8935C355.075 88.5435 359.935 100.794 363.805 113.174C366.025 120.254 367.272 126.667 367.545 132.414C368.155 145.354 364.875 157.814 362.235 170.394C359.865 181.684 365.355 196.524 368.685 209.644C373.875 230.074 369.185 253.714 360.175 273.334C359.022 275.847 356.688 279.177 353.175 283.324C346.755 290.89 339.865 297.974 332.505 304.574C320.655 315.214 307.545 323.224 293.105 329.524L286.375 332.474C280.148 335.194 273.658 337.477 266.905 339.324L255.905 341.734C249.278 343.147 242.595 344.21 235.855 344.924C223.905 346.184 210.065 345.484 197.285 345.254L182.355 344.594C164.105 343.614 148.245 339.994 127.395 334.704C115.655 331.724 106.265 328.944 99.225 326.364L94.135 323.044ZM186.975 4.77351C214.355 2.45351 242.805 5.78352 268.395 16.0535C286.065 23.1335 303.465 33.1335 316.435 46.6835C326.248 56.9302 335.302 67.7935 343.595 79.2735C351.775 90.6135 356.915 103.914 360.945 117.204C365.575 132.484 363.515 147.304 359.625 162.624C355.565 178.634 359.995 192.334 364.075 207.624C369.205 226.874 366.435 245.744 359.605 264.374C357.365 270.484 354.915 274.904 350.555 280.124C337.805 295.404 323.315 309.044 306.175 318.584C280.735 332.734 251.625 341.584 221.945 341.614C203.692 341.634 187.122 341.057 172.235 339.884C167.515 339.51 161.672 338.564 154.705 337.044L153.41 336.76C139.337 333.68 122.705 330.04 107.805 325.074C103.885 323.76 100.012 321.947 96.1851 319.634C77.4351 308.314 57.555 294.114 44.065 276.634C24.535 251.334 8.47506 220.404 4.55506 188.144C3.42839 178.877 3.6184 168.124 5.12506 155.884C6.95173 141.084 10.1284 126.58 14.6551 112.374C16.3284 107.127 18.5251 102.104 21.2451 97.3035C28.1117 85.1769 35.9117 73.6835 44.6451 62.8235C52.2951 53.2935 61.0951 43.6435 71.1151 37.0535C77.5417 32.8202 84.2417 29.0769 91.2151 25.8235C111.255 16.4635 133.855 9.10352 155.995 7.32352C166.322 6.49685 176.648 5.64685 186.975 4.77351Z" fill="black" stroke="black" stroke-width="4" stroke-linejoin="round" stroke-linecap="round"/>
</svg>
<g transform="translate(0,3)"><path d="M73.14 34.66C72.74 34.66 72.3067 34.6467 71.84 34.62C71.3867 34.5933 70.94 34.56 70.5 34.52C70.06 34.48 69.6667 34.4333 69.32 34.38V32.7C69.5467 32.7133 69.8 32.7333 70.08 32.76C70.3733 32.7867 70.68 32.8067 71 32.82C71.32 32.8333 71.6333 32.8467 71.94 32.86C72.2467 32.8733 72.5467 32.88 72.84 32.88C73.48 32.88 73.94 32.84 74.22 32.76C74.5133 32.68 74.7 32.5467 74.78 32.36C74.8733 32.16 74.92 31.9067 74.92 31.6C74.92 31.2533 74.8867 31 74.82 30.84C74.7667 30.68 74.66 30.5733 74.5 30.52C74.34 30.4667 74.0933 30.42 73.76 30.38L71.28 30.08C70.64 30.0133 70.1533 29.8667 69.82 29.64C69.5 29.4 69.28 29.08 69.16 28.68C69.0533 28.2667 69 27.7667 69 27.18C69 26.5 69.0933 25.96 69.28 25.56C69.48 25.1467 69.7533 24.84 70.1 24.64C70.46 24.44 70.8933 24.3067 71.4 24.24C71.9067 24.1733 72.46 24.14 73.06 24.14C73.4333 24.14 73.82 24.1533 74.22 24.18C74.6333 24.2067 75.0267 24.2467 75.4 24.3C75.7867 24.34 76.12 24.3867 76.4 24.44V26.12C76.08 26.08 75.7333 26.0467 75.36 26.02C74.9867 25.9933 74.6133 25.9733 74.24 25.96C73.88 25.9333 73.5333 25.92 73.2 25.92C72.7067 25.92 72.3 25.9467 71.98 26C71.66 26.04 71.42 26.1467 71.26 26.32C71.1133 26.48 71.04 26.76 71.04 27.16C71.04 27.4667 71.06 27.7 71.1 27.86C71.1533 28.0067 71.2533 28.1133 71.4 28.18C71.56 28.2333 71.8 28.28 72.12 28.32L74.8 28.64C75.3067 28.6933 75.7133 28.8 76.02 28.96C76.34 29.1067 76.5733 29.38 76.72 29.78C76.88 30.1667 76.96 30.76 76.96 31.56C76.96 32.2267 76.8733 32.7667 76.7 33.18C76.54 33.58 76.2933 33.8933 75.96 34.12C75.6267 34.3333 75.22 34.4733 74.74 34.54C74.2733 34.62 73.74 34.66 73.14 34.66ZM86.9009 34.66C86.0476 34.66 85.3343 34.6067 84.7609 34.5C84.2009 34.3933 83.7543 34.2267 83.4209 34C83.1009 33.76 82.8609 33.44 82.7009 33.04C82.5543 32.64 82.4543 32.14 82.4009 31.54C82.3609 30.94 82.3409 30.22 82.3409 29.38C82.3409 28.5533 82.3609 27.84 82.4009 27.24C82.4543 26.64 82.5543 26.14 82.7009 25.74C82.8609 25.34 83.1009 25.0267 83.4209 24.8C83.7543 24.56 84.2009 24.3933 84.7609 24.3C85.3343 24.1933 86.0476 24.14 86.9009 24.14C87.7676 24.14 88.4809 24.1933 89.0409 24.3C89.6143 24.3933 90.0609 24.56 90.3809 24.8C90.7143 25.0267 90.9543 25.34 91.1009 25.74C91.2609 26.14 91.3609 26.64 91.4009 27.24C91.4543 27.84 91.4809 28.5533 91.4809 29.38C91.4809 30.22 91.4543 30.94 91.4009 31.54C91.3609 32.14 91.2609 32.64 91.1009 33.04C90.9543 33.44 90.7143 33.76 90.3809 34C90.0609 34.2267 89.6143 34.3933 89.0409 34.5C88.4809 34.6067 87.7676 34.66 86.9009 34.66ZM86.9009 32.88C87.5143 32.88 87.9876 32.84 88.3209 32.76C88.6543 32.68 88.8876 32.52 89.0209 32.28C89.1676 32.04 89.2543 31.6867 89.2809 31.22C89.3209 30.7533 89.3409 30.14 89.3409 29.38C89.3409 28.62 89.3209 28.0133 89.2809 27.56C89.2543 27.0933 89.1676 26.74 89.0209 26.5C88.8876 26.26 88.6543 26.1067 88.3209 26.04C87.9876 25.96 87.5143 25.92 86.9009 25.92C86.3009 25.92 85.8343 25.96 85.5009 26.04C85.1676 26.1067 84.9276 26.26 84.7809 26.5C84.6476 26.74 84.5609 27.0933 84.5209 27.56C84.4943 28.0133 84.4809 28.62 84.4809 29.38C84.4809 30.14 84.4943 30.7533 84.5209 31.22C84.5609 31.6867 84.6476 32.04 84.7809 32.28C84.9276 32.52 85.1676 32.68 85.5009 32.76C85.8343 32.84 86.3009 32.88 86.9009 32.88ZM98.2672 34.5V26.08H96.2272V24.3H98.2672V21.34H100.387V24.3H102.767V26.08H100.387V34.5H98.2672ZM110.432 34.66C109.739 34.66 109.152 34.5667 108.672 34.38C108.206 34.1933 107.852 33.8867 107.612 33.46C107.372 33.02 107.252 32.4267 107.252 31.68C107.252 30.8933 107.346 30.2733 107.532 29.82C107.719 29.3533 108.039 29.02 108.492 28.82C108.946 28.62 109.586 28.52 110.412 28.52C110.546 28.52 110.739 28.5267 110.992 28.54C111.259 28.54 111.559 28.5467 111.892 28.56C112.239 28.56 112.579 28.5667 112.912 28.58C113.259 28.58 113.572 28.5867 113.852 28.6V28.12C113.852 27.6 113.819 27.1933 113.752 26.9C113.686 26.6067 113.546 26.3933 113.332 26.26C113.132 26.1133 112.839 26.02 112.452 25.98C112.066 25.94 111.566 25.92 110.952 25.92C110.659 25.92 110.312 25.9333 109.912 25.96C109.526 25.9733 109.146 25.9933 108.772 26.02C108.399 26.0467 108.112 26.08 107.912 26.12V24.44C108.459 24.3333 109.059 24.26 109.712 24.22C110.366 24.1667 111.019 24.14 111.672 24.14C112.432 24.14 113.066 24.1867 113.572 24.28C114.092 24.3733 114.512 24.52 114.832 24.72C115.152 24.92 115.392 25.18 115.552 25.5C115.712 25.82 115.826 26.2067 115.892 26.66C115.959 27.1 115.992 27.6067 115.992 28.18V34.5H114.032L113.952 33.18H113.832C113.606 33.6067 113.299 33.9333 112.912 34.16C112.539 34.3733 112.132 34.5067 111.692 34.56C111.252 34.6267 110.832 34.66 110.432 34.66ZM111.372 32.94C111.706 32.94 112.006 32.92 112.272 32.88C112.552 32.8267 112.792 32.7467 112.992 32.64C113.206 32.52 113.372 32.36 113.492 32.16C113.612 31.9333 113.699 31.6733 113.752 31.38C113.819 31.0867 113.852 30.74 113.852 30.34V29.98H110.932C110.492 29.98 110.152 30.0133 109.912 30.08C109.686 30.1467 109.532 30.2867 109.452 30.5C109.372 30.7133 109.332 31.04 109.332 31.48C109.332 31.8933 109.379 32.2067 109.472 32.42C109.566 32.62 109.759 32.76 110.052 32.84C110.359 32.9067 110.799 32.94 111.372 32.94ZM122.36 34.5V19.64H124.48V25.56H124.62C124.78 25.2533 124.994 25 125.26 24.8C125.527 24.5867 125.86 24.4267 126.26 24.32C126.674 24.2133 127.174 24.16 127.76 24.16C128.48 24.16 129.06 24.24 129.5 24.4C129.954 24.56 130.294 24.8067 130.52 25.14C130.747 25.4733 130.9 25.8867 130.98 26.38C131.074 26.8733 131.12 27.4533 131.12 28.12V34.5H128.98V28.96C128.98 28.2933 128.954 27.7667 128.9 27.38C128.86 26.98 128.767 26.6867 128.62 26.5C128.474 26.3 128.254 26.1733 127.96 26.12C127.68 26.0667 127.3 26.04 126.82 26.04C126.287 26.04 125.86 26.1067 125.54 26.24C125.234 26.3733 125 26.5733 124.84 26.84C124.694 27.1067 124.594 27.44 124.54 27.84C124.5 28.24 124.48 28.7067 124.48 29.24V34.5H122.36ZM140.075 34.66C139.381 34.66 138.795 34.5667 138.315 34.38C137.848 34.1933 137.495 33.8867 137.255 33.46C137.015 33.02 136.895 32.4267 136.895 31.68C136.895 30.8933 136.988 30.2733 137.175 29.82C137.361 29.3533 137.681 29.02 138.135 28.82C138.588 28.62 139.228 28.52 140.055 28.52C140.188 28.52 140.381 28.5267 140.635 28.54C140.901 28.54 141.201 28.5467 141.535 28.56C141.881 28.56 142.221 28.5667 142.555 28.58C142.901 28.58 143.215 28.5867 143.495 28.6V28.12C143.495 27.6 143.461 27.1933 143.395 26.9C143.328 26.6067 143.188 26.3933 142.975 26.26C142.775 26.1133 142.481 26.02 142.095 25.98C141.708 25.94 141.208 25.92 140.595 25.92C140.301 25.92 139.955 25.9333 139.555 25.96C139.168 25.9733 138.788 25.9933 138.415 26.02C138.041 26.0467 137.755 26.08 137.555 26.12V24.44C138.101 24.3333 138.701 24.26 139.355 24.22C140.008 24.1667 140.661 24.14 141.315 24.14C142.075 24.14 142.708 24.1867 143.215 24.28C143.735 24.3733 144.155 24.52 144.475 24.72C144.795 24.92 145.035 25.18 145.195 25.5C145.355 25.82 145.468 26.2067 145.535 26.66C145.601 27.1 145.635 27.6067 145.635 28.18V34.5H143.675L143.595 33.18H143.475C143.248 33.6067 142.941 33.9333 142.555 34.16C142.181 34.3733 141.775 34.5067 141.335 34.56C140.895 34.6267 140.475 34.66 140.075 34.66ZM141.015 32.94C141.348 32.94 141.648 32.92 141.915 32.88C142.195 32.8267 142.435 32.7467 142.635 32.64C142.848 32.52 143.015 32.36 143.135 32.16C143.255 31.9333 143.341 31.6733 143.395 31.38C143.461 31.0867 143.495 30.74 143.495 30.34V29.98H140.575C140.135 29.98 139.795 30.0133 139.555 30.08C139.328 30.1467 139.175 30.2867 139.095 30.5C139.015 30.7133 138.975 31.04 138.975 31.48C138.975 31.8933 139.021 32.2067 139.115 32.42C139.208 32.62 139.401 32.76 139.695 32.84C140.001 32.9067 140.441 32.94 141.015 32.94ZM152.825 34.5V26.08H150.785V24.3H152.825V21.34H154.945V24.3H157.325V26.08H154.945V34.5H152.825ZM164.99 34.66C164.297 34.66 163.71 34.5667 163.23 34.38C162.763 34.1933 162.41 33.8867 162.17 33.46C161.93 33.02 161.81 32.4267 161.81 31.68C161.81 30.8933 161.903 30.2733 162.09 29.82C162.277 29.3533 162.597 29.02 163.05 28.82C163.503 28.62 164.143 28.52 164.97 28.52C165.103 28.52 165.297 28.5267 165.55 28.54C165.817 28.54 166.117 28.5467 166.45 28.56C166.797 28.56 167.137 28.5667 167.47 28.58C167.817 28.58 168.13 28.5867 168.41 28.6V28.12C168.41 27.6 168.377 27.1933 168.31 26.9C168.243 26.6067 168.103 26.3933 167.89 26.26C167.69 26.1133 167.397 26.02 167.01 25.98C166.623 25.94 166.123 25.92 165.51 25.92C165.217 25.92 164.87 25.9333 164.47 25.96C164.083 25.9733 163.703 25.9933 163.33 26.02C162.957 26.0467 162.67 26.08 162.47 26.12V24.44C163.017 24.3333 163.617 24.26 164.27 24.22C164.923 24.1667 165.577 24.14 166.23 24.14C166.99 24.14 167.623 24.1867 168.13 24.28C168.65 24.3733 169.07 24.52 169.39 24.72C169.71 24.92 169.95 25.18 170.11 25.5C170.27 25.82 170.383 26.2067 170.45 26.66C170.517 27.1 170.55 27.6067 170.55 28.18V34.5H168.59L168.51 33.18H168.39C168.163 33.6067 167.857 33.9333 167.47 34.16C167.097 34.3733 166.69 34.5067 166.25 34.56C165.81 34.6267 165.39 34.66 164.99 34.66ZM165.93 32.94C166.263 32.94 166.563 32.92 166.83 32.88C167.11 32.8267 167.35 32.7467 167.55 32.64C167.763 32.52 167.93 32.36 168.05 32.16C168.17 31.9333 168.257 31.6733 168.31 31.38C168.377 31.0867 168.41 30.74 168.41 30.34V29.98H165.49C165.05 29.98 164.71 30.0133 164.47 30.08C164.243 30.1467 164.09 30.2867 164.01 30.5C163.93 30.7133 163.89 31.04 163.89 31.48C163.89 31.8933 163.937 32.2067 164.03 32.42C164.123 32.62 164.317 32.76 164.61 32.84C164.917 32.9067 165.357 32.94 165.93 32.94ZM176.918 34.5V19.64H179.038V28.48H180.098L183.358 24.3H185.698L181.798 29.22L185.758 34.5H183.338L180.098 30.26H179.038V34.5H176.918ZM194.439 34.66C193.572 34.66 192.852 34.6067 192.279 34.5C191.705 34.38 191.245 34.1933 190.899 33.94C190.552 33.6733 190.292 33.34 190.119 32.94C189.945 32.5267 189.832 32.0333 189.779 31.46C189.725 30.8733 189.699 30.1933 189.699 29.42C189.699 28.5 189.745 27.7067 189.839 27.04C189.932 26.3733 190.125 25.8267 190.419 25.4C190.712 24.96 191.165 24.64 191.779 24.44C192.405 24.24 193.239 24.14 194.279 24.14C195.092 24.14 195.759 24.2067 196.279 24.34C196.799 24.46 197.205 24.6533 197.499 24.92C197.805 25.1867 198.025 25.5333 198.159 25.96C198.305 26.3733 198.399 26.8733 198.439 27.46C198.479 28.0333 198.499 28.6867 198.499 29.42V30.1H191.839C191.839 30.7 191.865 31.1867 191.919 31.56C191.972 31.92 192.092 32.2 192.279 32.4C192.479 32.5867 192.785 32.72 193.199 32.8C193.625 32.8667 194.199 32.9 194.919 32.9C195.225 32.9 195.559 32.8933 195.919 32.88C196.292 32.8667 196.672 32.84 197.059 32.8C197.445 32.76 197.792 32.7267 198.099 32.7V34.36C197.805 34.4133 197.452 34.46 197.039 34.5C196.625 34.5533 196.192 34.5933 195.739 34.62C195.285 34.6467 194.852 34.66 194.439 34.66ZM196.459 28.96V28.58C196.459 27.98 196.419 27.5067 196.339 27.16C196.272 26.8 196.152 26.5333 195.979 26.36C195.819 26.1733 195.592 26.0533 195.299 26C195.019 25.9333 194.665 25.9 194.239 25.9C193.705 25.9 193.279 25.94 192.959 26.02C192.652 26.0867 192.419 26.22 192.259 26.42C192.099 26.62 191.985 26.9 191.919 27.26C191.865 27.6067 191.839 28.0667 191.839 28.64H196.819L196.459 28.96ZM208.491 38.62C208.104 38.62 207.698 38.6067 207.271 38.58C206.858 38.5667 206.458 38.5467 206.071 38.52C205.698 38.4933 205.364 38.46 205.071 38.42V36.76C205.551 36.7733 205.964 36.7867 206.311 36.8C206.671 36.8133 206.991 36.82 207.271 36.82C207.551 36.8333 207.798 36.84 208.011 36.84C208.731 36.84 209.298 36.7933 209.711 36.7C210.124 36.6067 210.431 36.4467 210.631 36.22C210.831 35.9933 210.951 35.68 210.991 35.28C211.044 34.8933 211.071 34.4 211.071 33.8V33.18H210.951C210.818 33.4733 210.618 33.7267 210.351 33.94C210.098 34.14 209.758 34.3 209.331 34.42C208.918 34.5267 208.404 34.58 207.791 34.58C207.084 34.58 206.504 34.5 206.051 34.34C205.611 34.1667 205.271 33.92 205.031 33.6C204.804 33.2667 204.651 32.8533 204.571 32.36C204.491 31.8667 204.451 31.2933 204.451 30.64V24.3H206.571V29.8C206.571 30.4667 206.591 31 206.631 31.4C206.684 31.7867 206.784 32.0733 206.931 32.26C207.078 32.4467 207.291 32.5733 207.571 32.64C207.864 32.6933 208.251 32.72 208.731 32.72C209.264 32.72 209.691 32.6533 210.011 32.52C210.331 32.3867 210.564 32.1867 210.711 31.92C210.871 31.6533 210.971 31.32 211.011 30.92C211.051 30.52 211.071 30.0533 211.071 29.52V24.3H213.211V33.3C213.211 34.2467 213.158 35.0533 213.051 35.72C212.958 36.4 212.751 36.9533 212.431 37.38C212.124 37.8067 211.658 38.12 211.031 38.32C210.404 38.52 209.558 38.62 208.491 38.62ZM222.165 34.66C221.472 34.66 220.885 34.5667 220.405 34.38C219.938 34.1933 219.585 33.8867 219.345 33.46C219.105 33.02 218.985 32.4267 218.985 31.68C218.985 30.8933 219.078 30.2733 219.265 29.82C219.452 29.3533 219.772 29.02 220.225 28.82C220.678 28.62 221.318 28.52 222.145 28.52C222.278 28.52 222.472 28.5267 222.725 28.54C222.992 28.54 223.292 28.5467 223.625 28.56C223.972 28.56 224.312 28.5667 224.645 28.58C224.992 28.58 225.305 28.5867 225.585 28.6V28.12C225.585 27.6 225.552 27.1933 225.485 26.9C225.418 26.6067 225.278 26.3933 225.065 26.26C224.865 26.1133 224.572 26.02 224.185 25.98C223.798 25.94 223.298 25.92 222.685 25.92C222.392 25.92 222.045 25.9333 221.645 25.96C221.258 25.9733 220.878 25.9933 220.505 26.02C220.132 26.0467 219.845 26.08 219.645 26.12V24.44C220.192 24.3333 220.792 24.26 221.445 24.22C222.098 24.1667 222.752 24.14 223.405 24.14C224.165 24.14 224.798 24.1867 225.305 24.28C225.825 24.3733 226.245 24.52 226.565 24.72C226.885 24.92 227.125 25.18 227.285 25.5C227.445 25.82 227.558 26.2067 227.625 26.66C227.692 27.1 227.725 27.6067 227.725 28.18V34.5H225.765L225.685 33.18H225.565C225.338 33.6067 225.032 33.9333 224.645 34.16C224.272 34.3733 223.865 34.5067 223.425 34.56C222.985 34.6267 222.565 34.66 222.165 34.66ZM223.105 32.94C223.438 32.94 223.738 32.92 224.005 32.88C224.285 32.8267 224.525 32.7467 224.725 32.64C224.938 32.52 225.105 32.36 225.225 32.16C225.345 31.9333 225.432 31.6733 225.485 31.38C225.552 31.0867 225.585 30.74 225.585 30.34V29.98H222.665C222.225 29.98 221.885 30.0133 221.645 30.08C221.418 30.1467 221.265 30.2867 221.185 30.5C221.105 30.7133 221.065 31.04 221.065 31.48C221.065 31.8933 221.112 32.2067 221.205 32.42C221.298 32.62 221.492 32.76 221.785 32.84C222.092 32.9067 222.532 32.94 223.105 32.94ZM234.093 34.5V24.3H236.053L236.113 25.66H236.253C236.4 25.34 236.6 25.0667 236.853 24.84C237.12 24.6133 237.447 24.44 237.833 24.32C238.233 24.2 238.713 24.14 239.273 24.14C240.127 24.14 240.767 24.2667 241.193 24.52C241.62 24.76 241.92 25.14 242.093 25.66H242.253C242.4 25.34 242.607 25.0667 242.873 24.84C243.153 24.6133 243.493 24.44 243.893 24.32C244.307 24.2 244.793 24.14 245.353 24.14C246.233 24.14 246.893 24.2867 247.333 24.58C247.773 24.8733 248.067 25.32 248.213 25.92C248.36 26.5067 248.433 27.24 248.433 28.12V34.5H246.313V28.96C246.313 28.2933 246.293 27.7667 246.253 27.38C246.213 26.98 246.127 26.6867 245.993 26.5C245.873 26.3 245.68 26.1733 245.413 26.12C245.16 26.0667 244.827 26.04 244.413 26.04C243.933 26.04 243.553 26.1067 243.273 26.24C242.993 26.36 242.787 26.5533 242.653 26.82C242.52 27.0733 242.433 27.4 242.393 27.8C242.353 28.2 242.333 28.68 242.333 29.24V34.5H240.213V28.96C240.213 28.2933 240.187 27.7667 240.133 27.38C240.093 26.98 240.007 26.6867 239.873 26.5C239.753 26.3 239.567 26.1733 239.313 26.12C239.06 26.0667 238.72 26.04 238.293 26.04C237.827 26.04 237.453 26.1067 237.173 26.24C236.893 26.3733 236.68 26.5733 236.533 26.84C236.4 27.0933 236.313 27.4267 236.273 27.84C236.233 28.24 236.213 28.7067 236.213 29.24V34.5H234.093ZM257.413 34.66C256.719 34.66 256.133 34.5667 255.653 34.38C255.186 34.1933 254.833 33.8867 254.593 33.46C254.353 33.02 254.233 32.4267 254.233 31.68C254.233 30.8933 254.326 30.2733 254.513 29.82C254.699 29.3533 255.019 29.02 255.473 28.82C255.926 28.62 256.566 28.52 257.393 28.52C257.526 28.52 257.719 28.5267 257.973 28.54C258.239 28.54 258.539 28.5467 258.873 28.56C259.219 28.56 259.559 28.5667 259.893 28.58C260.239 28.58 260.553 28.5867 260.833 28.6V28.12C260.833 27.6 260.799 27.1933 260.733 26.9C260.666 26.6067 260.526 26.3933 260.313 26.26C260.113 26.1133 259.819 26.02 259.433 25.98C259.046 25.94 258.546 25.92 257.933 25.92C257.639 25.92 257.293 25.9333 256.893 25.96C256.506 25.9733 256.126 25.9933 255.753 26.02C255.379 26.0467 255.093 26.08 254.893 26.12V24.44C255.439 24.3333 256.039 24.26 256.693 24.22C257.346 24.1667 257.999 24.14 258.653 24.14C259.413 24.14 260.046 24.1867 260.553 24.28C261.073 24.3733 261.493 24.52 261.813 24.72C262.133 24.92 262.373 25.18 262.533 25.5C262.693 25.82 262.806 26.2067 262.873 26.66C262.939 27.1 262.973 27.6067 262.973 28.18V34.5H261.013L260.933 33.18H260.813C260.586 33.6067 260.279 33.9333 259.893 34.16C259.519 34.3733 259.113 34.5067 258.673 34.56C258.233 34.6267 257.813 34.66 257.413 34.66ZM258.353 32.94C258.686 32.94 258.986 32.92 259.253 32.88C259.533 32.8267 259.773 32.7467 259.973 32.64C260.186 32.52 260.353 32.36 260.473 32.16C260.593 31.9333 260.679 31.6733 260.733 31.38C260.799 31.0867 260.833 30.74 260.833 30.34V29.98H257.913C257.473 29.98 257.133 30.0133 256.893 30.08C256.666 30.1467 256.513 30.2867 256.433 30.5C256.353 30.7133 256.313 31.04 256.313 31.48C256.313 31.8933 256.359 32.2067 256.453 32.42C256.546 32.62 256.739 32.76 257.033 32.84C257.339 32.9067 257.779 32.94 258.353 32.94ZM268.721 25.44V24.52C269.068 24.52 269.328 24.4933 269.501 24.44C269.688 24.3733 269.814 24.2533 269.881 24.08C269.948 23.8933 269.981 23.6267 269.981 23.28V22.94H269.041V20.74H271.341V22.4C271.341 23.0267 271.308 23.54 271.241 23.94C271.188 24.3267 271.068 24.6333 270.881 24.86C270.708 25.0733 270.448 25.2267 270.101 25.32C269.754 25.4 269.294 25.44 268.721 25.44ZM280.964 34.66C280.564 34.66 280.131 34.6467 279.664 34.62C279.211 34.5933 278.764 34.56 278.324 34.52C277.884 34.48 277.491 34.4333 277.144 34.38V32.7C277.371 32.7133 277.624 32.7333 277.904 32.76C278.198 32.7867 278.504 32.8067 278.824 32.82C279.144 32.8333 279.458 32.8467 279.764 32.86C280.071 32.8733 280.371 32.88 280.664 32.88C281.304 32.88 281.764 32.84 282.044 32.76C282.338 32.68 282.524 32.5467 282.604 32.36C282.698 32.16 282.744 31.9067 282.744 31.6C282.744 31.2533 282.711 31 282.644 30.84C282.591 30.68 282.484 30.5733 282.324 30.52C282.164 30.4667 281.918 30.42 281.584 30.38L279.104 30.08C278.464 30.0133 277.978 29.8667 277.644 29.64C277.324 29.4 277.104 29.08 276.984 28.68C276.878 28.2667 276.824 27.7667 276.824 27.18C276.824 26.5 276.918 25.96 277.104 25.56C277.304 25.1467 277.578 24.84 277.924 24.64C278.284 24.44 278.718 24.3067 279.224 24.24C279.731 24.1733 280.284 24.14 280.884 24.14C281.258 24.14 281.644 24.1533 282.044 24.18C282.458 24.2067 282.851 24.2467 283.224 24.3C283.611 24.34 283.944 24.3867 284.224 24.44V26.12C283.904 26.08 283.558 26.0467 283.184 26.02C282.811 25.9933 282.438 25.9733 282.064 25.96C281.704 25.9333 281.358 25.92 281.024 25.92C280.531 25.92 280.124 25.9467 279.804 26C279.484 26.04 279.244 26.1467 279.084 26.32C278.938 26.48 278.864 26.76 278.864 27.16C278.864 27.4667 278.884 27.7 278.924 27.86C278.978 28.0067 279.078 28.1133 279.224 28.18C279.384 28.2333 279.624 28.28 279.944 28.32L282.624 28.64C283.131 28.6933 283.538 28.8 283.844 28.96C284.164 29.1067 284.398 29.38 284.544 29.78C284.704 30.1667 284.784 30.76 284.784 31.56C284.784 32.2267 284.698 32.7667 284.524 33.18C284.364 33.58 284.118 33.8933 283.784 34.12C283.451 34.3333 283.044 34.4733 282.564 34.54C282.098 34.62 281.564 34.66 280.964 34.66ZM303.929 34.66C303.503 34.66 303.083 34.62 302.669 34.54C302.269 34.4733 301.903 34.3333 301.569 34.12C301.236 33.9067 300.963 33.5867 300.749 33.16H300.609L300.549 34.5H298.589V19.64H300.709V25.5H300.829C301.029 25.14 301.283 24.8667 301.589 24.68C301.909 24.48 302.269 24.34 302.669 24.26C303.069 24.18 303.509 24.14 303.989 24.14C304.669 24.14 305.236 24.2267 305.689 24.4C306.143 24.5733 306.503 24.86 306.769 25.26C307.049 25.6467 307.249 26.18 307.369 26.86C307.503 27.5267 307.569 28.3733 307.569 29.4C307.569 30.4267 307.503 31.28 307.369 31.96C307.236 32.6267 307.029 33.16 306.749 33.56C306.469 33.9467 306.096 34.2267 305.629 34.4C305.176 34.5733 304.609 34.66 303.929 34.66ZM303.049 32.78C303.583 32.78 304.003 32.7467 304.309 32.68C304.629 32.6 304.869 32.4467 305.029 32.22C305.189 31.9933 305.296 31.66 305.349 31.22C305.403 30.7667 305.429 30.16 305.429 29.4C305.429 28.64 305.403 28.04 305.349 27.6C305.296 27.1467 305.189 26.8133 305.029 26.6C304.869 26.3733 304.629 26.2267 304.309 26.16C304.003 26.08 303.583 26.04 303.049 26.04C302.529 26.04 302.109 26.1 301.789 26.22C301.483 26.34 301.256 26.54 301.109 26.82C300.936 27.1133 300.823 27.4733 300.769 27.9C300.729 28.3133 300.709 28.8133 300.709 29.4C300.709 29.9733 300.729 30.48 300.769 30.92C300.823 31.3467 300.929 31.7 301.089 31.98C301.249 32.26 301.483 32.4667 301.789 32.6C302.109 32.72 302.529 32.78 303.049 32.78ZM313.528 34.5V19.64H315.648V34.5H313.528ZM326.161 34.66C325.308 34.66 324.594 34.6067 324.021 34.5C323.461 34.3933 323.014 34.2267 322.681 34C322.361 33.76 322.121 33.44 321.961 33.04C321.814 32.64 321.714 32.14 321.661 31.54C321.621 30.94 321.601 30.22 321.601 29.38C321.601 28.5533 321.621 27.84 321.661 27.24C321.714 26.64 321.814 26.14 321.961 25.74C322.121 25.34 322.361 25.0267 322.681 24.8C323.014 24.56 323.461 24.3933 324.021 24.3C324.594 24.1933 325.308 24.14 326.161 24.14C327.028 24.14 327.741 24.1933 328.301 24.3C328.874 24.3933 329.321 24.56 329.641 24.8C329.974 25.0267 330.214 25.34 330.361 25.74C330.521 26.14 330.621 26.64 330.661 27.24C330.714 27.84 330.741 28.5533 330.741 29.38C330.741 30.22 330.714 30.94 330.661 31.54C330.621 32.14 330.521 32.64 330.361 33.04C330.214 33.44 329.974 33.76 329.641 34C329.321 34.2267 328.874 34.3933 328.301 34.5C327.741 34.6067 327.028 34.66 326.161 34.66ZM326.161 32.88C326.774 32.88 327.248 32.84 327.581 32.76C327.914 32.68 328.148 32.52 328.281 32.28C328.428 32.04 328.514 31.6867 328.541 31.22C328.581 30.7533 328.601 30.14 328.601 29.38C328.601 28.62 328.581 28.0133 328.541 27.56C328.514 27.0933 328.428 26.74 328.281 26.5C328.148 26.26 327.914 26.1067 327.581 26.04C327.248 25.96 326.774 25.92 326.161 25.92C325.561 25.92 325.094 25.96 324.761 26.04C324.428 26.1067 324.188 26.26 324.041 26.5C323.908 26.74 323.821 27.0933 323.781 27.56C323.754 28.0133 323.741 28.62 323.741 29.38C323.741 30.14 323.754 30.7533 323.781 31.22C323.821 31.6867 323.908 32.04 324.041 32.28C324.188 32.52 324.428 32.68 324.761 32.76C325.094 32.84 325.561 32.88 326.161 32.88ZM340.505 38.62C340.078 38.62 339.645 38.6067 339.205 38.58C338.765 38.5667 338.352 38.54 337.965 38.5C337.578 38.4733 337.252 38.4467 336.985 38.42V36.74C337.265 36.7667 337.585 36.7867 337.945 36.8C338.305 36.8133 338.665 36.82 339.025 36.82C339.385 36.8333 339.718 36.84 340.025 36.84C340.745 36.84 341.312 36.7933 341.725 36.7C342.152 36.62 342.465 36.4667 342.665 36.24C342.878 36.0267 343.012 35.7133 343.065 35.3C343.132 34.8867 343.165 34.3533 343.165 33.7V33.2H343.045C342.858 33.56 342.612 33.84 342.305 34.04C342.012 34.24 341.665 34.38 341.265 34.46C340.865 34.54 340.425 34.58 339.945 34.58C339.252 34.58 338.672 34.5 338.205 34.34C337.752 34.1667 337.385 33.8867 337.105 33.5C336.825 33.1133 336.618 32.5867 336.485 31.92C336.365 31.2533 336.305 30.4133 336.305 29.4C336.305 28.3733 336.365 27.5267 336.485 26.86C336.618 26.18 336.825 25.6467 337.105 25.26C337.385 24.86 337.758 24.5733 338.225 24.4C338.692 24.2267 339.272 24.14 339.965 24.14C340.365 24.14 340.772 24.18 341.185 24.26C341.598 24.3267 341.972 24.4733 342.305 24.7C342.652 24.9133 342.925 25.2333 343.125 25.66H343.245L343.325 24.3H345.285V33.24C345.285 34.2 345.238 35.02 345.145 35.7C345.052 36.38 344.845 36.9333 344.525 37.36C344.205 37.7867 343.725 38.1 343.085 38.3C342.458 38.5133 341.598 38.62 340.505 38.62ZM340.805 32.72C341.352 32.72 341.785 32.6533 342.105 32.52C342.425 32.3733 342.658 32.16 342.805 31.88C342.965 31.6 343.065 31.26 343.105 30.86C343.145 30.4467 343.165 29.9533 343.165 29.38C343.165 28.8333 343.145 28.3533 343.105 27.94C343.065 27.5267 342.972 27.18 342.825 26.9C342.665 26.5933 342.418 26.3733 342.085 26.24C341.765 26.0933 341.338 26.02 340.805 26.02C340.285 26.02 339.865 26.06 339.545 26.14C339.238 26.2067 339.005 26.3533 338.845 26.58C338.685 26.8067 338.578 27.14 338.525 27.58C338.472 28.02 338.445 28.62 338.445 29.38C338.445 30.1267 338.472 30.72 338.525 31.16C338.578 31.6 338.685 31.9333 338.845 32.16C339.005 32.3867 339.238 32.54 339.545 32.62C339.865 32.6867 340.285 32.72 340.805 32.72Z" fill="currentColor"/></g>
</svg>
