<svg width="347" height="56" viewBox="0 0 347 56" fill="none" xmlns="http://www.w3.org/2000/svg">
<path fill-rule="evenodd" clip-rule="evenodd" d="M28 55.0857C42.959 55.0857 55.0857 42.959 55.0857 28C55.0857 13.041 42.959 0.914286 28 0.914286C13.041 0.914286 0.914286 13.041 0.914286 28C0.914286 42.959 13.041 55.0857 28 55.0857ZM28 56C43.464 56 56 43.464 56 28C56 12.536 43.464 0 28 0C12.536 0 0 12.536 0 28C0 43.464 12.536 56 28 56Z" fill="black"/>
<path d="M8.8 25.7143C8.8 27.6542 9.4502 29.5146 10.6076 30.8863C11.7649 32.258 13.3347 33.0286 14.9714 33.0286C16.6082 33.0286 18.1779 32.258 19.3353 30.8863C20.4927 29.5146 21.1429 27.6542 21.1429 25.7143H8.8ZM34.8571 25.7143C34.8571 27.6542 35.5073 29.5146 36.6647 30.8863C37.8221 32.258 39.3918 33.0286 41.0286 33.0286C42.6653 33.0286 44.2351 32.258 45.3924 30.8863C46.5498 29.5146 47.2 27.6542 47.2 25.7143H34.8571Z" fill="black"/>
<path fill-rule="evenodd" clip-rule="evenodd" d="M8.34286 25.2571H21.6V25.7143C21.6 27.7527 20.9175 29.72 19.6847 31.1811C18.4499 32.6445 16.7569 33.4857 14.9714 33.4857C13.1859 33.4857 11.4929 32.6445 10.2582 31.1811C9.0254 29.72 8.34286 27.7527 8.34286 25.7143V25.2571ZM9.26986 26.1714C9.36307 27.8439 9.96494 29.4157 10.957 30.5915C12.0369 31.8715 13.4834 32.5714 14.9714 32.5714C16.4595 32.5714 17.9059 31.8715 18.9859 30.5915C19.9779 29.4157 20.5798 27.8439 20.673 26.1714H9.26986ZM34.4 25.2571H47.6571V25.7143C47.6571 27.7527 46.9746 29.72 45.7418 31.1811C44.5071 32.6445 42.8141 33.4857 41.0286 33.4857C39.2431 33.4857 37.5501 32.6445 36.3153 31.1811C35.0825 29.72 34.4 27.7527 34.4 25.7143V25.2571ZM35.327 26.1714C35.4202 27.8439 36.0221 29.4157 37.0141 30.5915C38.0941 31.8715 39.5405 32.5714 41.0286 32.5714C42.5166 32.5714 43.9631 31.8715 45.043 30.5915C46.0351 29.4157 46.6369 27.8439 46.7301 26.1714H35.327Z" fill="black"/>
<path fill-rule="evenodd" clip-rule="evenodd" d="M7.24113 37.4857H6.51429V36.5714H49.4857V37.4857H48.7589C46.9542 41.6368 44.0764 45.1669 40.4527 47.6623C36.7475 50.2138 32.4223 51.5735 28 51.5735C23.5778 51.5735 19.2525 50.2138 15.5473 47.6623C11.9236 45.1669 9.04577 41.6368 7.24113 37.4857ZM8.2417 37.4857C9.98805 41.3268 12.6939 44.5872 16.0658 46.9093C19.6215 49.3579 23.7666 50.6592 28 50.6592C32.2334 50.6592 36.3785 49.3579 39.9342 46.9093C43.3061 44.5872 46.012 41.3268 47.7583 37.4857H8.2417ZM14.9714 41.2571V38.7429H15.8857V41.2571H21.1429V38.7429H22.0571V41.2571H27.5429V38.7429H28.4571V41.2571H33.9429V38.7429H34.8571V41.2571H40.1143V38.7429H41.0286V41.2571H44V42.1714H41.0286V44.6857H40.1143V42.1714H34.8571V47.8857H33.9429V42.1714H28.4571V48.5714H27.5429V42.1714H22.0571V47.8857H21.1429V42.1714H15.8857V44.6857H14.9714V42.1714H12.1143V41.2571H14.9714Z" fill="black"/>
<path d="M73.14 34.66C72.74 34.66 72.3067 34.6467 71.84 34.62C71.3867 34.5933 70.94 34.56 70.5 34.52C70.06 34.48 69.6667 34.4333 69.32 34.38V32.7C69.5467 32.7133 69.8 32.7333 70.08 32.76C70.3733 32.7867 70.68 32.8067 71 32.82C71.32 32.8333 71.6333 32.8467 71.94 32.86C72.2467 32.8733 72.5467 32.88 72.84 32.88C73.48 32.88 73.94 32.84 74.22 32.76C74.5133 32.68 74.7 32.5467 74.78 32.36C74.8733 32.16 74.92 31.9067 74.92 31.6C74.92 31.2533 74.8867 31 74.82 30.84C74.7667 30.68 74.66 30.5733 74.5 30.52C74.34 30.4667 74.0933 30.42 73.76 30.38L71.28 30.08C70.64 30.0133 70.1533 29.8667 69.82 29.64C69.5 29.4 69.28 29.08 69.16 28.68C69.0533 28.2667 69 27.7667 69 27.18C69 26.5 69.0933 25.96 69.28 25.56C69.48 25.1467 69.7533 24.84 70.1 24.64C70.46 24.44 70.8933 24.3067 71.4 24.24C71.9067 24.1733 72.46 24.14 73.06 24.14C73.4333 24.14 73.82 24.1533 74.22 24.18C74.6333 24.2067 75.0267 24.2467 75.4 24.3C75.7867 24.34 76.12 24.3867 76.4 24.44V26.12C76.08 26.08 75.7333 26.0467 75.36 26.02C74.9867 25.9933 74.6133 25.9733 74.24 25.96C73.88 25.9333 73.5333 25.92 73.2 25.92C72.7067 25.92 72.3 25.9467 71.98 26C71.66 26.04 71.42 26.1467 71.26 26.32C71.1133 26.48 71.04 26.76 71.04 27.16C71.04 27.4667 71.06 27.7 71.1 27.86C71.1533 28.0067 71.2533 28.1133 71.4 28.18C71.56 28.2333 71.8 28.28 72.12 28.32L74.8 28.64C75.3067 28.6933 75.7133 28.8 76.02 28.96C76.34 29.1067 76.5733 29.38 76.72 29.78C76.88 30.1667 76.96 30.76 76.96 31.56C76.96 32.2267 76.8733 32.7667 76.7 33.18C76.54 33.58 76.2933 33.8933 75.96 34.12C75.6267 34.3333 75.22 34.4733 74.74 34.54C74.2733 34.62 73.74 34.66 73.14 34.66ZM86.9009 34.66C86.0476 34.66 85.3343 34.6067 84.7609 34.5C84.2009 34.3933 83.7543 34.2267 83.4209 34C83.1009 33.76 82.8609 33.44 82.7009 33.04C82.5543 32.64 82.4543 32.14 82.4009 31.54C82.3609 30.94 82.3409 30.22 82.3409 29.38C82.3409 28.5533 82.3609 27.84 82.4009 27.24C82.4543 26.64 82.5543 26.14 82.7009 25.74C82.8609 25.34 83.1009 25.0267 83.4209 24.8C83.7543 24.56 84.2009 24.3933 84.7609 24.3C85.3343 24.1933 86.0476 24.14 86.9009 24.14C87.7676 24.14 88.4809 24.1933 89.0409 24.3C89.6143 24.3933 90.0609 24.56 90.3809 24.8C90.7143 25.0267 90.9543 25.34 91.1009 25.74C91.2609 26.14 91.3609 26.64 91.4009 27.24C91.4543 27.84 91.4809 28.5533 91.4809 29.38C91.4809 30.22 91.4543 30.94 91.4009 31.54C91.3609 32.14 91.2609 32.64 91.1009 33.04C90.9543 33.44 90.7143 33.76 90.3809 34C90.0609 34.2267 89.6143 34.3933 89.0409 34.5C88.4809 34.6067 87.7676 34.66 86.9009 34.66ZM86.9009 32.88C87.5143 32.88 87.9876 32.84 88.3209 32.76C88.6543 32.68 88.8876 32.52 89.0209 32.28C89.1676 32.04 89.2543 31.6867 89.2809 31.22C89.3209 30.7533 89.3409 30.14 89.3409 29.38C89.3409 28.62 89.3209 28.0133 89.2809 27.56C89.2543 27.0933 89.1676 26.74 89.0209 26.5C88.8876 26.26 88.6543 26.1067 88.3209 26.04C87.9876 25.96 87.5143 25.92 86.9009 25.92C86.3009 25.92 85.8343 25.96 85.5009 26.04C85.1676 26.1067 84.9276 26.26 84.7809 26.5C84.6476 26.74 84.5609 27.0933 84.5209 27.56C84.4943 28.0133 84.4809 28.62 84.4809 29.38C84.4809 30.14 84.4943 30.7533 84.5209 31.22C84.5609 31.6867 84.6476 32.04 84.7809 32.28C84.9276 32.52 85.1676 32.68 85.5009 32.76C85.8343 32.84 86.3009 32.88 86.9009 32.88ZM98.2672 34.5V26.08H96.2272V24.3H98.2672V21.34H100.387V24.3H102.767V26.08H100.387V34.5H98.2672ZM110.432 34.66C109.739 34.66 109.152 34.5667 108.672 34.38C108.206 34.1933 107.852 33.8867 107.612 33.46C107.372 33.02 107.252 32.4267 107.252 31.68C107.252 30.8933 107.346 30.2733 107.532 29.82C107.719 29.3533 108.039 29.02 108.492 28.82C108.946 28.62 109.586 28.52 110.412 28.52C110.546 28.52 110.739 28.5267 110.992 28.54C111.259 28.54 111.559 28.5467 111.892 28.56C112.239 28.56 112.579 28.5667 112.912 28.58C113.259 28.58 113.572 28.5867 113.852 28.6V28.12C113.852 27.6 113.819 27.1933 113.752 26.9C113.686 26.6067 113.546 26.3933 113.332 26.26C113.132 26.1133 112.839 26.02 112.452 25.98C112.066 25.94 111.566 25.92 110.952 25.92C110.659 25.92 110.312 25.9333 109.912 25.96C109.526 25.9733 109.146 25.9933 108.772 26.02C108.399 26.0467 108.112 26.08 107.912 26.12V24.44C108.459 24.3333 109.059 24.26 109.712 24.22C110.366 24.1667 111.019 24.14 111.672 24.14C112.432 24.14 113.066 24.1867 113.572 24.28C114.092 24.3733 114.512 24.52 114.832 24.72C115.152 24.92 115.392 25.18 115.552 25.5C115.712 25.82 115.826 26.2067 115.892 26.66C115.959 27.1 115.992 27.6067 115.992 28.18V34.5H114.032L113.952 33.18H113.832C113.606 33.6067 113.299 33.9333 112.912 34.16C112.539 34.3733 112.132 34.5067 111.692 34.56C111.252 34.6267 110.832 34.66 110.432 34.66ZM111.372 32.94C111.706 32.94 112.006 32.92 112.272 32.88C112.552 32.8267 112.792 32.7467 112.992 32.64C113.206 32.52 113.372 32.36 113.492 32.16C113.612 31.9333 113.699 31.6733 113.752 31.38C113.819 31.0867 113.852 30.74 113.852 30.34V29.98H110.932C110.492 29.98 110.152 30.0133 109.912 30.08C109.686 30.1467 109.532 30.2867 109.452 30.5C109.372 30.7133 109.332 31.04 109.332 31.48C109.332 31.8933 109.379 32.2067 109.472 32.42C109.566 32.62 109.759 32.76 110.052 32.84C110.359 32.9067 110.799 32.94 111.372 32.94ZM122.36 34.5V19.64H124.48V25.56H124.62C124.78 25.2533 124.994 25 125.26 24.8C125.527 24.5867 125.86 24.4267 126.26 24.32C126.674 24.2133 127.174 24.16 127.76 24.16C128.48 24.16 129.06 24.24 129.5 24.4C129.954 24.56 130.294 24.8067 130.52 25.14C130.747 25.4733 130.9 25.8867 130.98 26.38C131.074 26.8733 131.12 27.4533 131.12 28.12V34.5H128.98V28.96C128.98 28.2933 128.954 27.7667 128.9 27.38C128.86 26.98 128.767 26.6867 128.62 26.5C128.474 26.3 128.254 26.1733 127.96 26.12C127.68 26.0667 127.3 26.04 126.82 26.04C126.287 26.04 125.86 26.1067 125.54 26.24C125.234 26.3733 125 26.5733 124.84 26.84C124.694 27.1067 124.594 27.44 124.54 27.84C124.5 28.24 124.48 28.7067 124.48 29.24V34.5H122.36ZM140.075 34.66C139.381 34.66 138.795 34.5667 138.315 34.38C137.848 34.1933 137.495 33.8867 137.255 33.46C137.015 33.02 136.895 32.4267 136.895 31.68C136.895 30.8933 136.988 30.2733 137.175 29.82C137.361 29.3533 137.681 29.02 138.135 28.82C138.588 28.62 139.228 28.52 140.055 28.52C140.188 28.52 140.381 28.5267 140.635 28.54C140.901 28.54 141.201 28.5467 141.535 28.56C141.881 28.56 142.221 28.5667 142.555 28.58C142.901 28.58 143.215 28.5867 143.495 28.6V28.12C143.495 27.6 143.461 27.1933 143.395 26.9C143.328 26.6067 143.188 26.3933 142.975 26.26C142.775 26.1133 142.481 26.02 142.095 25.98C141.708 25.94 141.208 25.92 140.595 25.92C140.301 25.92 139.955 25.9333 139.555 25.96C139.168 25.9733 138.788 25.9933 138.415 26.02C138.041 26.0467 137.755 26.08 137.555 26.12V24.44C138.101 24.3333 138.701 24.26 139.355 24.22C140.008 24.1667 140.661 24.14 141.315 24.14C142.075 24.14 142.708 24.1867 143.215 24.28C143.735 24.3733 144.155 24.52 144.475 24.72C144.795 24.92 145.035 25.18 145.195 25.5C145.355 25.82 145.468 26.2067 145.535 26.66C145.601 27.1 145.635 27.6067 145.635 28.18V34.5H143.675L143.595 33.18H143.475C143.248 33.6067 142.941 33.9333 142.555 34.16C142.181 34.3733 141.775 34.5067 141.335 34.56C140.895 34.6267 140.475 34.66 140.075 34.66ZM141.015 32.94C141.348 32.94 141.648 32.92 141.915 32.88C142.195 32.8267 142.435 32.7467 142.635 32.64C142.848 32.52 143.015 32.36 143.135 32.16C143.255 31.9333 143.341 31.6733 143.395 31.38C143.461 31.0867 143.495 30.74 143.495 30.34V29.98H140.575C140.135 29.98 139.795 30.0133 139.555 30.08C139.328 30.1467 139.175 30.2867 139.095 30.5C139.015 30.7133 138.975 31.04 138.975 31.48C138.975 31.8933 139.021 32.2067 139.115 32.42C139.208 32.62 139.401 32.76 139.695 32.84C140.001 32.9067 140.441 32.94 141.015 32.94ZM152.825 34.5V26.08H150.785V24.3H152.825V21.34H154.945V24.3H157.325V26.08H154.945V34.5H152.825ZM164.99 34.66C164.297 34.66 163.71 34.5667 163.23 34.38C162.763 34.1933 162.41 33.8867 162.17 33.46C161.93 33.02 161.81 32.4267 161.81 31.68C161.81 30.8933 161.903 30.2733 162.09 29.82C162.277 29.3533 162.597 29.02 163.05 28.82C163.503 28.62 164.143 28.52 164.97 28.52C165.103 28.52 165.297 28.5267 165.55 28.54C165.817 28.54 166.117 28.5467 166.45 28.56C166.797 28.56 167.137 28.5667 167.47 28.58C167.817 28.58 168.13 28.5867 168.41 28.6V28.12C168.41 27.6 168.377 27.1933 168.31 26.9C168.243 26.6067 168.103 26.3933 167.89 26.26C167.69 26.1133 167.397 26.02 167.01 25.98C166.623 25.94 166.123 25.92 165.51 25.92C165.217 25.92 164.87 25.9333 164.47 25.96C164.083 25.9733 163.703 25.9933 163.33 26.02C162.957 26.0467 162.67 26.08 162.47 26.12V24.44C163.017 24.3333 163.617 24.26 164.27 24.22C164.923 24.1667 165.577 24.14 166.23 24.14C166.99 24.14 167.623 24.1867 168.13 24.28C168.65 24.3733 169.07 24.52 169.39 24.72C169.71 24.92 169.95 25.18 170.11 25.5C170.27 25.82 170.383 26.2067 170.45 26.66C170.517 27.1 170.55 27.6067 170.55 28.18V34.5H168.59L168.51 33.18H168.39C168.163 33.6067 167.857 33.9333 167.47 34.16C167.097 34.3733 166.69 34.5067 166.25 34.56C165.81 34.6267 165.39 34.66 164.99 34.66ZM165.93 32.94C166.263 32.94 166.563 32.92 166.83 32.88C167.11 32.8267 167.35 32.7467 167.55 32.64C167.763 32.52 167.93 32.36 168.05 32.16C168.17 31.9333 168.257 31.6733 168.31 31.38C168.377 31.0867 168.41 30.74 168.41 30.34V29.98H165.49C165.05 29.98 164.71 30.0133 164.47 30.08C164.243 30.1467 164.09 30.2867 164.01 30.5C163.93 30.7133 163.89 31.04 163.89 31.48C163.89 31.8933 163.937 32.2067 164.03 32.42C164.123 32.62 164.317 32.76 164.61 32.84C164.917 32.9067 165.357 32.94 165.93 32.94ZM176.918 34.5V19.64H179.038V28.48H180.098L183.358 24.3H185.698L181.798 29.22L185.758 34.5H183.338L180.098 30.26H179.038V34.5H176.918ZM194.439 34.66C193.572 34.66 192.852 34.6067 192.279 34.5C191.705 34.38 191.245 34.1933 190.899 33.94C190.552 33.6733 190.292 33.34 190.119 32.94C189.945 32.5267 189.832 32.0333 189.779 31.46C189.725 30.8733 189.699 30.1933 189.699 29.42C189.699 28.5 189.745 27.7067 189.839 27.04C189.932 26.3733 190.125 25.8267 190.419 25.4C190.712 24.96 191.165 24.64 191.779 24.44C192.405 24.24 193.239 24.14 194.279 24.14C195.092 24.14 195.759 24.2067 196.279 24.34C196.799 24.46 197.205 24.6533 197.499 24.92C197.805 25.1867 198.025 25.5333 198.159 25.96C198.305 26.3733 198.399 26.8733 198.439 27.46C198.479 28.0333 198.499 28.6867 198.499 29.42V30.1H191.839C191.839 30.7 191.865 31.1867 191.919 31.56C191.972 31.92 192.092 32.2 192.279 32.4C192.479 32.5867 192.785 32.72 193.199 32.8C193.625 32.8667 194.199 32.9 194.919 32.9C195.225 32.9 195.559 32.8933 195.919 32.88C196.292 32.8667 196.672 32.84 197.059 32.8C197.445 32.76 197.792 32.7267 198.099 32.7V34.36C197.805 34.4133 197.452 34.46 197.039 34.5C196.625 34.5533 196.192 34.5933 195.739 34.62C195.285 34.6467 194.852 34.66 194.439 34.66ZM196.459 28.96V28.58C196.459 27.98 196.419 27.5067 196.339 27.16C196.272 26.8 196.152 26.5333 195.979 26.36C195.819 26.1733 195.592 26.0533 195.299 26C195.019 25.9333 194.665 25.9 194.239 25.9C193.705 25.9 193.279 25.94 192.959 26.02C192.652 26.0867 192.419 26.22 192.259 26.42C192.099 26.62 191.985 26.9 191.919 27.26C191.865 27.6067 191.839 28.0667 191.839 28.64H196.819L196.459 28.96ZM208.491 38.62C208.104 38.62 207.698 38.6067 207.271 38.58C206.858 38.5667 206.458 38.5467 206.071 38.52C205.698 38.4933 205.364 38.46 205.071 38.42V36.76C205.551 36.7733 205.964 36.7867 206.311 36.8C206.671 36.8133 206.991 36.82 207.271 36.82C207.551 36.8333 207.798 36.84 208.011 36.84C208.731 36.84 209.298 36.7933 209.711 36.7C210.124 36.6067 210.431 36.4467 210.631 36.22C210.831 35.9933 210.951 35.68 210.991 35.28C211.044 34.8933 211.071 34.4 211.071 33.8V33.18H210.951C210.818 33.4733 210.618 33.7267 210.351 33.94C210.098 34.14 209.758 34.3 209.331 34.42C208.918 34.5267 208.404 34.58 207.791 34.58C207.084 34.58 206.504 34.5 206.051 34.34C205.611 34.1667 205.271 33.92 205.031 33.6C204.804 33.2667 204.651 32.8533 204.571 32.36C204.491 31.8667 204.451 31.2933 204.451 30.64V24.3H206.571V29.8C206.571 30.4667 206.591 31 206.631 31.4C206.684 31.7867 206.784 32.0733 206.931 32.26C207.078 32.4467 207.291 32.5733 207.571 32.64C207.864 32.6933 208.251 32.72 208.731 32.72C209.264 32.72 209.691 32.6533 210.011 32.52C210.331 32.3867 210.564 32.1867 210.711 31.92C210.871 31.6533 210.971 31.32 211.011 30.92C211.051 30.52 211.071 30.0533 211.071 29.52V24.3H213.211V33.3C213.211 34.2467 213.158 35.0533 213.051 35.72C212.958 36.4 212.751 36.9533 212.431 37.38C212.124 37.8067 211.658 38.12 211.031 38.32C210.404 38.52 209.558 38.62 208.491 38.62ZM222.165 34.66C221.472 34.66 220.885 34.5667 220.405 34.38C219.938 34.1933 219.585 33.8867 219.345 33.46C219.105 33.02 218.985 32.4267 218.985 31.68C218.985 30.8933 219.078 30.2733 219.265 29.82C219.452 29.3533 219.772 29.02 220.225 28.82C220.678 28.62 221.318 28.52 222.145 28.52C222.278 28.52 222.472 28.5267 222.725 28.54C222.992 28.54 223.292 28.5467 223.625 28.56C223.972 28.56 224.312 28.5667 224.645 28.58C224.992 28.58 225.305 28.5867 225.585 28.6V28.12C225.585 27.6 225.552 27.1933 225.485 26.9C225.418 26.6067 225.278 26.3933 225.065 26.26C224.865 26.1133 224.572 26.02 224.185 25.98C223.798 25.94 223.298 25.92 222.685 25.92C222.392 25.92 222.045 25.9333 221.645 25.96C221.258 25.9733 220.878 25.9933 220.505 26.02C220.132 26.0467 219.845 26.08 219.645 26.12V24.44C220.192 24.3333 220.792 24.26 221.445 24.22C222.098 24.1667 222.752 24.14 223.405 24.14C224.165 24.14 224.798 24.1867 225.305 24.28C225.825 24.3733 226.245 24.52 226.565 24.72C226.885 24.92 227.125 25.18 227.285 25.5C227.445 25.82 227.558 26.2067 227.625 26.66C227.692 27.1 227.725 27.6067 227.725 28.18V34.5H225.765L225.685 33.18H225.565C225.338 33.6067 225.032 33.9333 224.645 34.16C224.272 34.3733 223.865 34.5067 223.425 34.56C222.985 34.6267 222.565 34.66 222.165 34.66ZM223.105 32.94C223.438 32.94 223.738 32.92 224.005 32.88C224.285 32.8267 224.525 32.7467 224.725 32.64C224.938 32.52 225.105 32.36 225.225 32.16C225.345 31.9333 225.432 31.6733 225.485 31.38C225.552 31.0867 225.585 30.74 225.585 30.34V29.98H222.665C222.225 29.98 221.885 30.0133 221.645 30.08C221.418 30.1467 221.265 30.2867 221.185 30.5C221.105 30.7133 221.065 31.04 221.065 31.48C221.065 31.8933 221.112 32.2067 221.205 32.42C221.298 32.62 221.492 32.76 221.785 32.84C222.092 32.9067 222.532 32.94 223.105 32.94ZM234.093 34.5V24.3H236.053L236.113 25.66H236.253C236.4 25.34 236.6 25.0667 236.853 24.84C237.12 24.6133 237.447 24.44 237.833 24.32C238.233 24.2 238.713 24.14 239.273 24.14C240.127 24.14 240.767 24.2667 241.193 24.52C241.62 24.76 241.92 25.14 242.093 25.66H242.253C242.4 25.34 242.607 25.0667 242.873 24.84C243.153 24.6133 243.493 24.44 243.893 24.32C244.307 24.2 244.793 24.14 245.353 24.14C246.233 24.14 246.893 24.2867 247.333 24.58C247.773 24.8733 248.067 25.32 248.213 25.92C248.36 26.5067 248.433 27.24 248.433 28.12V34.5H246.313V28.96C246.313 28.2933 246.293 27.7667 246.253 27.38C246.213 26.98 246.127 26.6867 245.993 26.5C245.873 26.3 245.68 26.1733 245.413 26.12C245.16 26.0667 244.827 26.04 244.413 26.04C243.933 26.04 243.553 26.1067 243.273 26.24C242.993 26.36 242.787 26.5533 242.653 26.82C242.52 27.0733 242.433 27.4 242.393 27.8C242.353 28.2 242.333 28.68 242.333 29.24V34.5H240.213V28.96C240.213 28.2933 240.187 27.7667 240.133 27.38C240.093 26.98 240.007 26.6867 239.873 26.5C239.753 26.3 239.567 26.1733 239.313 26.12C239.06 26.0667 238.72 26.04 238.293 26.04C237.827 26.04 237.453 26.1067 237.173 26.24C236.893 26.3733 236.68 26.5733 236.533 26.84C236.4 27.0933 236.313 27.4267 236.273 27.84C236.233 28.24 236.213 28.7067 236.213 29.24V34.5H234.093ZM257.413 34.66C256.719 34.66 256.133 34.5667 255.653 34.38C255.186 34.1933 254.833 33.8867 254.593 33.46C254.353 33.02 254.233 32.4267 254.233 31.68C254.233 30.8933 254.326 30.2733 254.513 29.82C254.699 29.3533 255.019 29.02 255.473 28.82C255.926 28.62 256.566 28.52 257.393 28.52C257.526 28.52 257.719 28.5267 257.973 28.54C258.239 28.54 258.539 28.5467 258.873 28.56C259.219 28.56 259.559 28.5667 259.893 28.58C260.239 28.58 260.553 28.5867 260.833 28.6V28.12C260.833 27.6 260.799 27.1933 260.733 26.9C260.666 26.6067 260.526 26.3933 260.313 26.26C260.113 26.1133 259.819 26.02 259.433 25.98C259.046 25.94 258.546 25.92 257.933 25.92C257.639 25.92 257.293 25.9333 256.893 25.96C256.506 25.9733 256.126 25.9933 255.753 26.02C255.379 26.0467 255.093 26.08 254.893 26.12V24.44C255.439 24.3333 256.039 24.26 256.693 24.22C257.346 24.1667 257.999 24.14 258.653 24.14C259.413 24.14 260.046 24.1867 260.553 24.28C261.073 24.3733 261.493 24.52 261.813 24.72C262.133 24.92 262.373 25.18 262.533 25.5C262.693 25.82 262.806 26.2067 262.873 26.66C262.939 27.1 262.973 27.6067 262.973 28.18V34.5H261.013L260.933 33.18H260.813C260.586 33.6067 260.279 33.9333 259.893 34.16C259.519 34.3733 259.113 34.5067 258.673 34.56C258.233 34.6267 257.813 34.66 257.413 34.66ZM258.353 32.94C258.686 32.94 258.986 32.92 259.253 32.88C259.533 32.8267 259.773 32.7467 259.973 32.64C260.186 32.52 260.353 32.36 260.473 32.16C260.593 31.9333 260.679 31.6733 260.733 31.38C260.799 31.0867 260.833 30.74 260.833 30.34V29.98H257.913C257.473 29.98 257.133 30.0133 256.893 30.08C256.666 30.1467 256.513 30.2867 256.433 30.5C256.353 30.7133 256.313 31.04 256.313 31.48C256.313 31.8933 256.359 32.2067 256.453 32.42C256.546 32.62 256.739 32.76 257.033 32.84C257.339 32.9067 257.779 32.94 258.353 32.94ZM268.721 25.44V24.52C269.068 24.52 269.328 24.4933 269.501 24.44C269.688 24.3733 269.814 24.2533 269.881 24.08C269.948 23.8933 269.981 23.6267 269.981 23.28V22.94H269.041V20.74H271.341V22.4C271.341 23.0267 271.308 23.54 271.241 23.94C271.188 24.3267 271.068 24.6333 270.881 24.86C270.708 25.0733 270.448 25.2267 270.101 25.32C269.754 25.4 269.294 25.44 268.721 25.44ZM280.964 34.66C280.564 34.66 280.131 34.6467 279.664 34.62C279.211 34.5933 278.764 34.56 278.324 34.52C277.884 34.48 277.491 34.4333 277.144 34.38V32.7C277.371 32.7133 277.624 32.7333 277.904 32.76C278.198 32.7867 278.504 32.8067 278.824 32.82C279.144 32.8333 279.458 32.8467 279.764 32.86C280.071 32.8733 280.371 32.88 280.664 32.88C281.304 32.88 281.764 32.84 282.044 32.76C282.338 32.68 282.524 32.5467 282.604 32.36C282.698 32.16 282.744 31.9067 282.744 31.6C282.744 31.2533 282.711 31 282.644 30.84C282.591 30.68 282.484 30.5733 282.324 30.52C282.164 30.4667 281.918 30.42 281.584 30.38L279.104 30.08C278.464 30.0133 277.978 29.8667 277.644 29.64C277.324 29.4 277.104 29.08 276.984 28.68C276.878 28.2667 276.824 27.7667 276.824 27.18C276.824 26.5 276.918 25.96 277.104 25.56C277.304 25.1467 277.578 24.84 277.924 24.64C278.284 24.44 278.718 24.3067 279.224 24.24C279.731 24.1733 280.284 24.14 280.884 24.14C281.258 24.14 281.644 24.1533 282.044 24.18C282.458 24.2067 282.851 24.2467 283.224 24.3C283.611 24.34 283.944 24.3867 284.224 24.44V26.12C283.904 26.08 283.558 26.0467 283.184 26.02C282.811 25.9933 282.438 25.9733 282.064 25.96C281.704 25.9333 281.358 25.92 281.024 25.92C280.531 25.92 280.124 25.9467 279.804 26C279.484 26.04 279.244 26.1467 279.084 26.32C278.938 26.48 278.864 26.76 278.864 27.16C278.864 27.4667 278.884 27.7 278.924 27.86C278.978 28.0067 279.078 28.1133 279.224 28.18C279.384 28.2333 279.624 28.28 279.944 28.32L282.624 28.64C283.131 28.6933 283.538 28.8 283.844 28.96C284.164 29.1067 284.398 29.38 284.544 29.78C284.704 30.1667 284.784 30.76 284.784 31.56C284.784 32.2267 284.698 32.7667 284.524 33.18C284.364 33.58 284.118 33.8933 283.784 34.12C283.451 34.3333 283.044 34.4733 282.564 34.54C282.098 34.62 281.564 34.66 280.964 34.66ZM303.929 34.66C303.503 34.66 303.083 34.62 302.669 34.54C302.269 34.4733 301.903 34.3333 301.569 34.12C301.236 33.9067 300.963 33.5867 300.749 33.16H300.609L300.549 34.5H298.589V19.64H300.709V25.5H300.829C301.029 25.14 301.283 24.8667 301.589 24.68C301.909 24.48 302.269 24.34 302.669 24.26C303.069 24.18 303.509 24.14 303.989 24.14C304.669 24.14 305.236 24.2267 305.689 24.4C306.143 24.5733 306.503 24.86 306.769 25.26C307.049 25.6467 307.249 26.18 307.369 26.86C307.503 27.5267 307.569 28.3733 307.569 29.4C307.569 30.4267 307.503 31.28 307.369 31.96C307.236 32.6267 307.029 33.16 306.749 33.56C306.469 33.9467 306.096 34.2267 305.629 34.4C305.176 34.5733 304.609 34.66 303.929 34.66ZM303.049 32.78C303.583 32.78 304.003 32.7467 304.309 32.68C304.629 32.6 304.869 32.4467 305.029 32.22C305.189 31.9933 305.296 31.66 305.349 31.22C305.403 30.7667 305.429 30.16 305.429 29.4C305.429 28.64 305.403 28.04 305.349 27.6C305.296 27.1467 305.189 26.8133 305.029 26.6C304.869 26.3733 304.629 26.2267 304.309 26.16C304.003 26.08 303.583 26.04 303.049 26.04C302.529 26.04 302.109 26.1 301.789 26.22C301.483 26.34 301.256 26.54 301.109 26.82C300.936 27.1133 300.823 27.4733 300.769 27.9C300.729 28.3133 300.709 28.8133 300.709 29.4C300.709 29.9733 300.729 30.48 300.769 30.92C300.823 31.3467 300.929 31.7 301.089 31.98C301.249 32.26 301.483 32.4667 301.789 32.6C302.109 32.72 302.529 32.78 303.049 32.78ZM313.528 34.5V19.64H315.648V34.5H313.528ZM326.161 34.66C325.308 34.66 324.594 34.6067 324.021 34.5C323.461 34.3933 323.014 34.2267 322.681 34C322.361 33.76 322.121 33.44 321.961 33.04C321.814 32.64 321.714 32.14 321.661 31.54C321.621 30.94 321.601 30.22 321.601 29.38C321.601 28.5533 321.621 27.84 321.661 27.24C321.714 26.64 321.814 26.14 321.961 25.74C322.121 25.34 322.361 25.0267 322.681 24.8C323.014 24.56 323.461 24.3933 324.021 24.3C324.594 24.1933 325.308 24.14 326.161 24.14C327.028 24.14 327.741 24.1933 328.301 24.3C328.874 24.3933 329.321 24.56 329.641 24.8C329.974 25.0267 330.214 25.34 330.361 25.74C330.521 26.14 330.621 26.64 330.661 27.24C330.714 27.84 330.741 28.5533 330.741 29.38C330.741 30.22 330.714 30.94 330.661 31.54C330.621 32.14 330.521 32.64 330.361 33.04C330.214 33.44 329.974 33.76 329.641 34C329.321 34.2267 328.874 34.3933 328.301 34.5C327.741 34.6067 327.028 34.66 326.161 34.66ZM326.161 32.88C326.774 32.88 327.248 32.84 327.581 32.76C327.914 32.68 328.148 32.52 328.281 32.28C328.428 32.04 328.514 31.6867 328.541 31.22C328.581 30.7533 328.601 30.14 328.601 29.38C328.601 28.62 328.581 28.0133 328.541 27.56C328.514 27.0933 328.428 26.74 328.281 26.5C328.148 26.26 327.914 26.1067 327.581 26.04C327.248 25.96 326.774 25.92 326.161 25.92C325.561 25.92 325.094 25.96 324.761 26.04C324.428 26.1067 324.188 26.26 324.041 26.5C323.908 26.74 323.821 27.0933 323.781 27.56C323.754 28.0133 323.741 28.62 323.741 29.38C323.741 30.14 323.754 30.7533 323.781 31.22C323.821 31.6867 323.908 32.04 324.041 32.28C324.188 32.52 324.428 32.68 324.761 32.76C325.094 32.84 325.561 32.88 326.161 32.88ZM340.505 38.62C340.078 38.62 339.645 38.6067 339.205 38.58C338.765 38.5667 338.352 38.54 337.965 38.5C337.578 38.4733 337.252 38.4467 336.985 38.42V36.74C337.265 36.7667 337.585 36.7867 337.945 36.8C338.305 36.8133 338.665 36.82 339.025 36.82C339.385 36.8333 339.718 36.84 340.025 36.84C340.745 36.84 341.312 36.7933 341.725 36.7C342.152 36.62 342.465 36.4667 342.665 36.24C342.878 36.0267 343.012 35.7133 343.065 35.3C343.132 34.8867 343.165 34.3533 343.165 33.7V33.2H343.045C342.858 33.56 342.612 33.84 342.305 34.04C342.012 34.24 341.665 34.38 341.265 34.46C340.865 34.54 340.425 34.58 339.945 34.58C339.252 34.58 338.672 34.5 338.205 34.34C337.752 34.1667 337.385 33.8867 337.105 33.5C336.825 33.1133 336.618 32.5867 336.485 31.92C336.365 31.2533 336.305 30.4133 336.305 29.4C336.305 28.3733 336.365 27.5267 336.485 26.86C336.618 26.18 336.825 25.6467 337.105 25.26C337.385 24.86 337.758 24.5733 338.225 24.4C338.692 24.2267 339.272 24.14 339.965 24.14C340.365 24.14 340.772 24.18 341.185 24.26C341.598 24.3267 341.972 24.4733 342.305 24.7C342.652 24.9133 342.925 25.2333 343.125 25.66H343.245L343.325 24.3H345.285V33.24C345.285 34.2 345.238 35.02 345.145 35.7C345.052 36.38 344.845 36.9333 344.525 37.36C344.205 37.7867 343.725 38.1 343.085 38.3C342.458 38.5133 341.598 38.62 340.505 38.62ZM340.805 32.72C341.352 32.72 341.785 32.6533 342.105 32.52C342.425 32.3733 342.658 32.16 342.805 31.88C342.965 31.6 343.065 31.26 343.105 30.86C343.145 30.4467 343.165 29.9533 343.165 29.38C343.165 28.8333 343.145 28.3533 343.105 27.94C343.065 27.5267 342.972 27.18 342.825 26.9C342.665 26.5933 342.418 26.3733 342.085 26.24C341.765 26.0933 341.338 26.02 340.805 26.02C340.285 26.02 339.865 26.06 339.545 26.14C339.238 26.2067 339.005 26.3533 338.845 26.58C338.685 26.8067 338.578 27.14 338.525 27.58C338.472 28.02 338.445 28.62 338.445 29.38C338.445 30.1267 338.472 30.72 338.525 31.16C338.578 31.6 338.685 31.9333 338.845 32.16C339.005 32.3867 339.238 32.54 339.545 32.62C339.865 32.6867 340.285 32.72 340.805 32.72Z" fill="black"/>
</svg>
