<svg width="512" height="512" viewBox="0 0 512 512" fill="none" xmlns="http://www.w3.org/2000/svg">
  <path fill-rule="evenodd" clip-rule="evenodd"
    d="M257 493C387.891 493 494 386.891 494 256C494 125.109 387.891 19 257 19C126.109 19 20 125.109 20 256C20 386.891 126.109 493 257 493ZM257 501C392.31 501 502 391.31 502 256C502 120.69 392.31 11 257 11C121.69 11 12 120.69 12 256C12 391.31 121.69 501 257 501Z"
    fill="white" />
  <path
    d="M89 236C89 252.974 94.6893 269.252 104.816 281.255C114.943 293.257 128.678 300 143 300C157.322 300 171.057 293.257 181.184 281.255C191.311 269.252 197 252.974 197 236H89ZM317 236C317 252.974 322.689 269.252 332.816 281.255C342.943 293.257 356.678 300 371 300C385.322 300 399.057 293.257 409.184 281.255C419.311 269.252 425 252.974 425 236H317Z"
    fill="white" />
  <path
    d="M85 232H201V236C201 253.836 195.028 271.05 184.241 283.834C173.437 296.639 158.623 304 143 304C127.377 304 112.563 296.639 101.759 283.834C90.9722 271.05 85 253.836 85 236V232ZM93.1113 240C93.9268 254.634 99.1932 268.388 107.873 278.675C117.323 289.875 129.98 296 143 296C156.02 296 168.677 289.875 178.127 278.675C186.807 268.388 192.073 254.634 192.889 240H93.1113ZM313 232H429V236C429 253.836 423.028 271.05 412.241 283.834C401.437 296.639 386.623 304 371 304C355.377 304 340.563 296.639 329.759 283.834C318.972 271.05 313 253.836 313 236V232ZM321.111 240C321.927 254.634 327.193 268.388 335.873 278.675C345.323 289.875 357.98 296 371 296C384.02 296 396.677 289.875 406.127 278.675C414.807 268.388 420.073 254.634 420.889 240H321.111Z"
    fill="white" />
  <path
    d="M75.3599 339H69V331H445V339H438.64C422.849 375.322 397.668 406.21 365.961 428.045C333.541 450.371 295.695 462.268 257 462.268C218.305 462.268 180.459 450.371 148.039 428.045C116.332 406.21 91.1505 375.322 75.3599 339ZM84.1148 339C99.3954 372.61 123.072 401.138 152.576 421.456C183.688 442.881 219.958 454.268 257 454.268C294.042 454.268 330.312 442.881 361.424 421.456C390.928 401.138 414.605 372.61 429.885 339H84.1148ZM143 372V350H151V372H197V350H205V372H253V350H261V372H309V350H317V372H363V350H371V372H397V380H371V402H363V380H317V430H309V380H261V436H253V380H205V430H197V380H151V402H143V380H118V372H143Z"
    fill="white" />
</svg>
