<svg xmlns="http://www.w3.org/2000/svg" viewBox="0 0 512 512" fill="none">
  <circle cx="256" cy="256" r="241" fill="#fff" stroke="#000" stroke-width="8" />
  <path
    d="M88 236c0 16.974 5.69 33.252 15.816 45.255C113.943 293.257 127.678 300 142 300s28.057-6.743 38.184-18.745C190.311 269.252 196 252.974 196 236H88zm228 0c0 16.974 5.689 33.252 15.816 45.255C341.943 293.257 355.678 300 370 300s28.057-6.743 38.184-18.745C418.311 269.252 424 252.974 424 236H316z"
    fill="#000" stroke="#000" stroke-width="8" />
  <path
    d="M68 335h376m-327 41h279m-250-26v52m54-52v80m56-80v86m56-86v80m54-80v52M77 335c15.426 36.701 40.541 67.875 72.307 89.75 31.767 21.876 68.824 33.518 106.693 33.518s74.926-11.642 106.693-33.518C394.459 402.875 419.574 371.701 435 335H77z"
    stroke="#000" stroke-width="8" />
  <style>
    circle,
    path {
      fill: #fff;
      stroke: #000;
    }

    @media (prefers-color-scheme: dark) {

      circle,
      path {
        fill: none;
        stroke: #fff;
      }
    }
  </style>
</svg>