<svg viewBox="0 0 432 432" xmlns="http://www.w3.org/2000/svg" fill="none">
  <svg x="30" y="43" width="372" height="346" viewBox="0 0 371 346" overflow="visible">
    <path fill="black" stroke="black" stroke-width="4" stroke-linejoin="round" stroke-linecap="round" d="M260.72 206.23L259.24 206.48C259.045 206.516 258.845 206.512 258.651 206.468C258.457 206.425 258.274 206.343 258.112 206.228C257.95 206.112 257.812 205.965 257.707 205.796C257.602 205.626 257.532 205.437 257.5 205.24L257.4 204.57C257.254 203.623 257.643 203.02 258.57 202.76L330.37 183.05C331.583 182.717 332.364 183.157 332.71 184.37L332.83 184.76C332.943 185.149 332.9 185.566 332.709 185.923C332.518 186.28 332.196 186.548 331.81 186.67C331.077 186.91 330.504 187.12 330.09 187.3C329.584 187.52 329.31 187.987 329.27 188.7C328.63 200.35 325.08 211.47 314.75 217.8C305.117 223.693 294.977 225.517 284.33 223.27C274.79 221.25 267.2 214.39 261.67 206.62C261.566 206.471 261.421 206.355 261.252 206.286C261.084 206.217 260.899 206.197 260.72 206.23Z"/>
    <path fill="black" stroke="black" stroke-width="4" stroke-linejoin="round" stroke-linecap="round" d="M129.74 209.44L126.03 210.85C125.565 211.024 125.051 211.012 124.596 210.816C124.141 210.62 123.78 210.256 123.59 209.8L123.42 209.39C123.269 209.031 123.261 208.627 123.397 208.263C123.533 207.899 123.802 207.601 124.15 207.43C129.697 204.717 135.98 203.26 143 203.06C149.62 202.867 164.617 202.26 187.99 201.24C191.563 201.087 194.497 200.55 196.79 199.63C201.543 197.73 205.583 194.894 208.91 191.12C209.797 190.12 210.713 190.097 211.66 191.05L212.08 191.48C212.342 191.743 212.492 192.098 212.498 192.469C212.503 192.841 212.364 193.2 212.11 193.47L206.99 198.91C206.757 199.164 206.637 199.464 206.63 199.81C206.47 207.96 204.97 216.67 200.16 223.3C196.21 228.75 190.35 234.37 183.39 235.47C172.48 237.18 160.88 236.9 151.37 231.69C141.91 226.51 134.05 220.07 130.41 209.75C130.297 209.417 130.073 209.314 129.74 209.44Z"/>
    <path fill="black" stroke="black" stroke-width="4" stroke-linejoin="round" stroke-linecap="round" d="M133.54 248.18C145.99 253.83 158.79 258.47 171.44 263.64C173.907 264.647 177.85 265.557 183.27 266.37C191.05 267.544 198.876 268.214 206.75 268.38C228.48 268.83 250.61 268.88 272.25 266.68C288.26 265.06 305.57 258.26 318.72 254.71C319.84 254.404 321.056 254.524 322.37 255.07C322.513 255.131 322.642 255.22 322.75 255.331C322.858 255.443 322.943 255.575 323 255.72C323.366 256.7 323.46 257.634 323.28 258.52C319.49 276.82 309.02 288.24 295.36 300.36C285.18 309.4 274.97 313.62 262.24 318.44C248.97 323.45 238.88 324.96 222.85 324.85C209.96 324.76 200.12 322.93 187.98 317.51C168.53 308.83 148.15 296.71 138.25 277.05C134.077 268.764 130.467 260.234 127.42 251.46C125.26 245.24 130.36 246.73 133.54 248.18ZM137.64 254.23C135.773 253.444 133.95 252.72 132.17 252.06C131.817 251.934 131.706 252.044 131.84 252.39C134.82 260.424 138.223 268.33 142.05 276.11C145.64 283.42 151.99 289.6 158.02 294.93C167.09 302.97 179.04 309.03 190.14 314.06C195.353 316.42 200.026 318.067 204.16 319C216.25 321.72 229.74 321.24 241.99 319.82C253.68 318.47 266.37 312.93 276.98 307.97C288.08 302.77 297.1 293.96 305.3 285.06C311.5 278.327 316.077 270.027 319.03 260.16C319.35 259.087 318.973 258.71 317.9 259.03C303.9 263.25 288.86 268.86 274.5 270.45C255.01 272.62 234.33 272.63 214.25 272.57C205.81 272.55 197.393 272.117 189 271.27C181.1 270.477 175.247 269.344 171.44 267.87C160.107 263.477 148.84 258.93 137.64 254.23Z"/>
    <path fill="black" stroke="black" stroke-width="4" stroke-linejoin="round" stroke-linecap="round" d="M151.86 274.95L151.88 270.77C151.881 270.531 151.93 270.295 152.025 270.076C152.119 269.857 152.257 269.66 152.43 269.495C152.603 269.331 152.807 269.203 153.03 269.12C153.254 269.036 153.492 268.999 153.73 269.01L154.24 269.04C154.678 269.058 155.093 269.245 155.397 269.562C155.701 269.878 155.87 270.301 155.87 270.74L155.86 277.25C155.86 277.392 155.899 277.532 155.974 277.653C156.048 277.775 156.153 277.874 156.28 277.94L162.72 281.43C162.894 281.524 163.048 281.653 163.172 281.809C163.295 281.964 163.386 282.142 163.439 282.334C163.493 282.525 163.507 282.725 163.481 282.922C163.455 283.119 163.39 283.308 163.29 283.48L163.03 283.93C162.77 284.369 162.353 284.693 161.865 284.832C161.377 284.972 160.856 284.917 160.41 284.68L156.48 282.59C156.073 282.37 155.87 282.493 155.87 282.96L155.88 285.97C155.893 287.583 155.11 288.223 153.53 287.89L153.14 287.81C152.785 287.732 152.467 287.537 152.238 287.255C152.009 286.974 151.883 286.623 151.88 286.26V280.58C151.873 280.28 151.74 280.06 151.48 279.92L147.07 277.54C146.711 277.349 146.441 277.025 146.316 276.637C146.191 276.249 146.221 275.827 146.4 275.46L146.6 275.04C147.153 273.893 148 273.61 149.14 274.19L151.3 275.29C151.673 275.483 151.86 275.37 151.86 274.95Z"/>
    <path fill="black" stroke="black" stroke-width="4" stroke-linejoin="round" stroke-linecap="round" d="M288.89 289.62L286.1 290.47C285.89 290.533 285.67 290.553 285.453 290.53C285.235 290.507 285.025 290.441 284.834 290.335C284.643 290.23 284.475 290.088 284.34 289.917C284.206 289.746 284.107 289.55 284.05 289.34L283.94 288.93C283.613 287.75 284.026 286.967 285.18 286.58L288.91 285.32C289.203 285.22 289.353 285.013 289.36 284.7L289.4 278.44C289.402 278.069 289.55 277.714 289.811 277.449C290.072 277.184 290.427 277.03 290.8 277.02L291.28 277C291.55 276.992 291.82 277.038 292.073 277.137C292.325 277.235 292.556 277.383 292.75 277.572C292.945 277.761 293.1 277.988 293.207 278.238C293.313 278.489 293.368 278.758 293.37 279.03L293.38 283.26C293.38 283.336 293.398 283.412 293.434 283.48C293.469 283.547 293.52 283.606 293.582 283.649C293.644 283.692 293.715 283.72 293.79 283.729C293.865 283.737 293.94 283.728 294.01 283.7L295.7 283.05C296.127 282.886 296.601 282.889 297.027 283.057C297.453 283.226 297.8 283.548 298 283.96L298.29 284.56C298.381 284.748 298.431 284.953 298.438 285.162C298.446 285.371 298.409 285.58 298.331 285.774C298.253 285.968 298.135 286.143 297.985 286.289C297.835 286.435 297.656 286.547 297.46 286.62L293.75 288C293.503 288.087 293.38 288.263 293.38 288.53L293.35 293.26C293.347 293.612 293.233 293.953 293.025 294.236C292.816 294.518 292.524 294.726 292.19 294.83C290.74 295.29 289.53 294.53 289.42 293.03C289.346 292.05 289.35 291.057 289.43 290.05C289.456 289.643 289.276 289.5 288.89 289.62Z"/>
    <path fill="black" stroke="black" stroke-width="4" stroke-linejoin="round" stroke-linecap="round" d="M185.89 297.7L185.38 303.02C185.253 304.3 184.549 304.916 183.269 304.87L182.76 304.85C182.558 304.844 182.36 304.796 182.178 304.71C181.996 304.625 181.833 304.502 181.7 304.35C181.567 304.198 181.466 304.02 181.404 303.828C181.342 303.635 181.32 303.431 181.34 303.23L182.04 296.3C182.08 295.92 181.916 295.666 181.549 295.54L174.82 293.15C174.477 293.029 174.19 292.787 174.014 292.468C173.837 292.15 173.782 291.777 173.859 291.42L173.959 290.98C174.273 289.586 175.106 289.116 176.459 289.57L182.04 291.42C182.102 291.439 182.167 291.446 182.232 291.438C182.297 291.429 182.359 291.407 182.413 291.373C182.468 291.338 182.514 291.292 182.548 291.238C182.582 291.184 182.603 291.123 182.609 291.06L183.399 283.9C183.445 283.494 183.646 283.121 183.96 282.858C184.275 282.596 184.679 282.464 185.09 282.49L185.59 282.52C186.896 282.6 187.483 283.29 187.35 284.59L186.519 292.45C186.479 292.81 186.63 293.05 186.97 293.17L192.859 295.24C193.239 295.374 193.553 295.649 193.735 296.009C193.918 296.368 193.955 296.784 193.84 297.17L193.739 297.51C193.346 298.836 192.496 299.276 191.19 298.83L186.549 297.27C186.478 297.245 186.401 297.237 186.326 297.246C186.251 297.256 186.178 297.282 186.115 297.324C186.051 297.365 185.998 297.421 185.959 297.486C185.92 297.551 185.896 297.624 185.89 297.7Z"/>
    <path fill="black" stroke="black" stroke-width="4" stroke-linejoin="round" stroke-linecap="round" d="M268.99 295.32L265.9 296.47C264.513 296.984 263.706 296.51 263.48 295.05L263.39 294.46C263.327 294.075 263.405 293.679 263.608 293.344C263.811 293.009 264.127 292.756 264.5 292.63L269.47 290.97C269.81 290.857 269.99 290.62 270.01 290.26L270.37 285.03C270.397 284.624 270.575 284.243 270.87 283.962C271.164 283.681 271.553 283.52 271.96 283.51L272.31 283.5C272.579 283.495 272.846 283.544 273.095 283.646C273.344 283.748 273.57 283.901 273.758 284.094C273.946 284.287 274.093 284.516 274.19 284.769C274.287 285.021 274.331 285.29 274.32 285.56L274.18 288.73C274.16 289.17 274.363 289.334 274.79 289.22C276.55 288.73 278.57 287.54 279.32 290.23C279.43 290.635 279.385 291.066 279.192 291.437C278.999 291.808 278.673 292.092 278.28 292.23L274.27 293.65C273.97 293.75 273.806 293.96 273.78 294.28L273.33 300.2C273.223 301.64 272.463 302.22 271.05 301.94L270.62 301.86C270.261 301.791 269.938 301.596 269.711 301.31C269.483 301.024 269.366 300.666 269.38 300.3L269.56 295.74C269.58 295.32 269.39 295.18 268.99 295.32Z"/>
    <path fill="black" stroke="black" stroke-width="4" stroke-linejoin="round" stroke-linecap="round" d="M248.04 295.27L255.09 294.47C256.49 294.317 257.22 294.94 257.28 296.34L257.3 296.79C257.313 297.173 257.183 297.547 256.935 297.839C256.688 298.131 256.34 298.32 255.96 298.37L247.58 299.41C247.28 299.443 247.113 299.613 247.08 299.92L246.25 308.14C246.216 308.488 246.057 308.813 245.803 309.052C245.549 309.291 245.217 309.429 244.87 309.44L244.24 309.46C242.867 309.507 242.24 308.847 242.36 307.48L242.97 300.45C242.997 300.083 242.827 299.92 242.46 299.96L233.63 300.98C233.426 301.003 233.22 300.985 233.023 300.927C232.827 300.869 232.644 300.771 232.486 300.64C232.328 300.51 232.199 300.348 232.105 300.166C232.011 299.984 231.955 299.784 231.94 299.58L231.9 298.97C231.807 297.783 232.35 297.123 233.53 296.99L242.8 295.89C243.213 295.843 243.44 295.613 243.48 295.2L244.4 285.49C244.42 285.278 244.482 285.073 244.582 284.886C244.682 284.698 244.818 284.533 244.983 284.399C245.148 284.265 245.338 284.165 245.541 284.105C245.745 284.045 245.959 284.026 246.17 284.05L246.56 284.09C247.86 284.237 248.45 284.963 248.33 286.27L247.54 294.79C247.507 295.157 247.673 295.317 248.04 295.27Z"/>
    <path fill="black" stroke="black" stroke-width="4" stroke-linejoin="round" stroke-linecap="round" d="M210.379 296.1V288.09C210.379 287.678 210.54 287.284 210.826 286.99C211.112 286.696 211.501 286.528 211.909 286.52L212.369 286.5C212.631 286.493 212.891 286.539 213.135 286.634C213.379 286.73 213.601 286.873 213.788 287.056C213.975 287.238 214.124 287.457 214.226 287.698C214.327 287.939 214.38 288.198 214.379 288.46L214.369 296.27C214.363 296.71 214.579 296.946 215.019 296.98L220.519 297.47C221.766 297.583 222.359 298.263 222.299 299.51L222.269 299.95C222.259 300.163 222.207 300.373 222.114 300.566C222.021 300.759 221.891 300.932 221.731 301.073C221.57 301.215 221.383 301.323 221.18 301.391C220.977 301.459 220.763 301.486 220.549 301.47L214.849 300.98C214.79 300.974 214.73 300.981 214.673 301C214.616 301.019 214.563 301.05 214.519 301.091C214.475 301.131 214.44 301.18 214.416 301.235C214.391 301.29 214.379 301.35 214.379 301.41L214.359 308.16C214.353 309.5 213.68 310.106 212.34 309.98L211.739 309.92C211.368 309.88 211.024 309.706 210.773 309.429C210.523 309.152 210.382 308.793 210.379 308.42L210.369 301.19C210.369 300.803 210.176 300.593 209.789 300.56L202.28 299.9C202.066 299.88 201.859 299.817 201.671 299.715C201.483 299.613 201.318 299.473 201.186 299.304C201.054 299.136 200.957 298.942 200.903 298.735C200.849 298.527 200.837 298.311 200.869 298.1L200.919 297.79C201.126 296.456 201.903 295.85 203.249 295.97L209.9 296.54C210.22 296.566 210.379 296.42 210.379 296.1Z"/>
    <path fill="black" stroke="black" stroke-width="4" stroke-linejoin="round" stroke-linecap="round" fill-rule="evenodd" clip-rule="evenodd" d="M94.135 323.044C74.325 311.104 54.025 296.214 40.315 278.324C17.555 248.644 -1.51497 209.694 0.0950345 171.394C1.00837 149.734 4.94838 128.647 11.915 108.134C13.4417 103.627 15.3884 99.3035 17.755 95.1635C28.615 76.1635 41.1951 59.3302 55.4951 44.6635C60.9951 39.0335 67.835 33.9635 75.095 29.8035C102.195 14.2835 131.565 5.10352 162.725 2.65352C181.538 1.17352 194.042 0.320184 200.235 0.0935174C214.068 -0.419816 229.135 1.18018 245.435 4.89352C271.475 10.8235 298.495 23.1035 317.315 42.0635C328.355 53.1835 338.415 65.1269 347.495 77.8935C355.075 88.5435 359.935 100.794 363.805 113.174C366.025 120.254 367.272 126.667 367.545 132.414C368.155 145.354 364.875 157.814 362.235 170.394C359.865 181.684 365.355 196.524 368.685 209.644C373.875 230.074 369.185 253.714 360.175 273.334C359.022 275.847 356.688 279.177 353.175 283.324C346.755 290.89 339.865 297.974 332.505 304.574C320.655 315.214 307.545 323.224 293.105 329.524L286.375 332.474C280.148 335.194 273.658 337.477 266.905 339.324L255.905 341.734C249.278 343.147 242.595 344.21 235.855 344.924C223.905 346.184 210.065 345.484 197.285 345.254L182.355 344.594C164.105 343.614 148.245 339.994 127.395 334.704C115.655 331.724 106.265 328.944 99.225 326.364L94.135 323.044ZM186.975 4.77351C214.355 2.45351 242.805 5.78352 268.395 16.0535C286.065 23.1335 303.465 33.1335 316.435 46.6835C326.248 56.9302 335.302 67.7935 343.595 79.2735C351.775 90.6135 356.915 103.914 360.945 117.204C365.575 132.484 363.515 147.304 359.625 162.624C355.565 178.634 359.995 192.334 364.075 207.624C369.205 226.874 366.435 245.744 359.605 264.374C357.365 270.484 354.915 274.904 350.555 280.124C337.805 295.404 323.315 309.044 306.175 318.584C280.735 332.734 251.625 341.584 221.945 341.614C203.692 341.634 187.122 341.057 172.235 339.884C167.515 339.51 161.672 338.564 154.705 337.044L153.41 336.76C139.337 333.68 122.705 330.04 107.805 325.074C103.885 323.76 100.012 321.947 96.1851 319.634C77.4351 308.314 57.555 294.114 44.065 276.634C24.535 251.334 8.47506 220.404 4.55506 188.144C3.42839 178.877 3.6184 168.124 5.12506 155.884C6.95173 141.084 10.1284 126.58 14.6551 112.374C16.3284 107.127 18.5251 102.104 21.2451 97.3035C28.1117 85.1769 35.9117 73.6835 44.6451 62.8235C52.2951 53.2935 61.0951 43.6435 71.1151 37.0535C77.5417 32.8202 84.2417 29.0769 91.2151 25.8235C111.255 16.4635 133.855 9.10352 155.995 7.32352C166.322 6.49685 176.648 5.64685 186.975 4.77351Z"/>
  </svg>
</svg>
